<svg xmlns="http://www.w3.org/2000/svg" xmlns:xlink="http://www.w3.org/1999/xlink" viewBox="0 0 503.56 157.28" xmlns:v="https://vecta.io/nano"><defs><linearGradient id="A" x1="162.885" y1=".366" x2="-4.083" y2="80.602" gradientUnits="userSpaceOnUse"><stop offset="0" stop-color="#00fefe"/><stop offset="1" stop-color="#6855fe"/></linearGradient><linearGradient id="B" x1="29.91" y1="151.703" x2="29.91" y2="1.868" gradientUnits="userSpaceOnUse"><stop offset="0" stop-color="#1d2ece"/><stop offset="1" stop-color="#8159fe"/></linearGradient><linearGradient id="C" x1="77.035" x2="77.035" xlink:href="#B"/><linearGradient id="D" x1="191.409" y1="59.723" x2="24.44" y2="139.959" xlink:href="#A"/><path id="E" d="M256.57 87.98h-36.03c1.09 9.18 8.08 14.06 16.5 14.06a17.568 17.568 0 0 0 13.05-5.3l3.54 3.62a22.058 22.058 0 0 1-17.34 7.75c-11.79 0-22.48-8.17-22.48-22.73 0-14.73 10.78-22.73 21.8-22.73 11.11-.01 22.73 7.98 20.96 25.33zm-36.03-5.39h29.8c-.51-9.01-7.32-13.81-14.65-13.81-7.24 0-14.06 4.63-15.15 13.81z"/></defs><g fill="#fff"><path d="M150.42 54.05v20.04h22.73v6.23h-22.73v26.94h-7.24V47.49h32.16v6.57h-24.92zm58.08 8.92v6.65a10.291 10.291 0 0 0-2.44-.25c-8.17 0-14.14 6.15-14.14 15.91v21.97h-7.07V63.47h7.07v10.86c1.6-6.31 5.98-11.7 14.06-11.7a7.64 7.64 0 0 1 2.52.34z"/><use xlink:href="#E"/><use xlink:href="#E" x="49.58"/><path d="M322.31 54.05v20.04h22.73v6.23h-22.73v26.94h-7.24V47.49h32.16v6.57h-24.92zm29.8 31.32c0-14.65 11.37-22.73 22.73-22.73 11.37 0 22.73 8.08 22.73 22.73s-11.37 22.73-22.73 22.73-22.73-8.09-22.73-22.73zm38.39 0c0-10.35-7.58-16.25-15.66-16.25s-15.66 5.89-15.66 16.25c0 10.35 7.58 16.25 15.66 16.25 8.08-.01 15.66-5.9 15.66-16.25zm39.4-22.4v6.65a10.291 10.291 0 0 0-2.44-.25c-8.17 0-14.14 6.15-14.14 15.91v21.97h-7.07V63.47h7.07v10.86c1.6-6.31 5.98-11.7 14.06-11.7a7.679 7.679 0 0 1 2.52.34zm73.66 18.52v25.76h-7.07V82c0-8-3.62-12.88-10.61-12.88-7.07 0-11.28 4.88-11.28 12.88v25.25h-7.07V82c0-8-3.62-12.88-10.61-12.88-7.07 0-11.28 4.88-11.28 12.88v25.25h-7.07V63.47h7.07v6.82c2.11-4.04 6.4-7.66 13.39-7.66 6.15 0 11.2 2.78 13.81 8.84 2.1-4.46 6.82-8.84 14.9-8.84 9.08.01 15.82 5.82 15.82 18.86z"/></g><path d="M157.29 0H0v157.28L157.29 0z" fill="url(#A)"/><path d="M0 37.66v119.62l59.82-59.81L0 37.66z" fill="url(#B)"/><path d="M94.25 131.9V63.04L59.82 97.47l34.43 34.43z" fill="url(#C)"/><path d="M25.39 131.9h68.86L59.82 97.47 25.39 131.9z" fill="url(#D)"/></svg>