<svg xmlns="http://www.w3.org/2000/svg" viewBox="0 0 799.64 149.7471"><defs><style>.a{fill:#b6b6bf;}</style></defs><path class="a" d="M352.32.0248q8.115-.015,16.23.01c.12,29.75,0,59.51.06,89.27a93.0165,93.0165,0,0,0,2.7,22.59c2.43,9.8,10.22,18.63,20.52,20.19,8.55,1.35,18.25,1.16,25.52-4.14,5.35-3.66,8.28-9.79,10.18-15.79a106.3723,106.3723,0,0,0,2.65-24.84q.015-43.605.01-87.21c5.42-.16,10.84-.09,16.27-.05q.06,47.145,0,94.3a76.1148,76.1148,0,0,1-2.58,20.09c-2.72,12.65-10.08,25.08-22.08,30.82-12.21,5.4-26.34,5.71-39.09,2.06a36.2111,36.2111,0,0,1-22.14-16.73c-6.66-11.51-8.3-25.2-8.3-38.28C352.3,61.5448,352.21,30.7848,352.32.0248Z"/><path class="a" d="M462.09.0848c14.88-.16,29.77-.01,44.66-.08,13.72.09,28.1,4.37,37.81,14.48,6.8,6.49,11.03,15.17,13.98,23.97a128.5725,128.5725,0,0,1,.43,67.02c-3.37,11.72-9.74,23.04-19.96,30.08-11.87,8.52-27.08,10-41.27,9.59q-17.85-.015-35.71-.01C462.11,96.7848,462.01,48.4348,462.09.0848Zm16.34,16.9c.04,37.19-.02,74.39.03,111.59,15.65-.58,32.58,2.32,46.88-5.66,10.96-6.12,16.5-18.37,18.66-30.23a137.0327,137.0327,0,0,0-.15-40.49c-2.16-9.73-5.88-19.68-13.56-26.44-6.56-6.16-15.68-8.84-24.54-8.79C496.64,16.9748,487.54,16.9548,478.43,16.9848Z"/><path class="a" d="M577.07.0748c13.55-.14,27.11-.01,40.67-.06,7.83-.12,15.82.45,23.23,3.18,13.37,4.01,23.86,14.82,29.44,27.4,7.33,17.14,8.2,36.26,6.96,54.62-1.3,12.09-3.5,24.42-9.75,35.05a46.8942,46.8942,0,0,1-29.56,22.53c-5.36,1.12-10.76,2.33-16.27,2.29-14.92.12-29.85.03-44.77.05C577.08,96.7848,576.99,48.4248,577.07.0748Zm16.4,16.89q.03,55.815.01,111.61c11.21-.18,22.49.59,33.63-1,10.46-1.85,20.48-7.84,25.59-17.38,8.57-15.75,8.3-34.39,7.04-51.78-1.86-11.33-4.96-23.34-13.46-31.62-6.4-6.49-15.51-9.68-24.52-9.82C612.33,16.9548,602.9,16.9848,593.47,16.9648Z"/><path class="a" d="M776.16.6648c6.4-1.26,13.11-.27,19.63-.51-20.75,29.49-42.46,58.33-63.32,87.75q33.585-.135,67.17-.01c-.02,19.07.01,38.15-.01,57.22-5.36-.02-10.71-.03-16.07.01.05-13.64-.15-27.28.11-40.92-19.66-.05-39.32.03-58.98-.04-1.49.17-3.2-.37-4.51.49-9.92,13.43-19.49,27.12-29.5,40.49-6.42-.12-12.85.04-19.27-.1,19.04-26.89,38.71-53.34,57.92-80.11C745.02,43.5648,760.36,21.9348,776.16.6648Z"/><path class="a" d="M.02,4.0348q21.495-.105,42.99,0c-.09,48.53.04,97.06-.09,145.59-5.51.17-11.02.09-16.52.06q-.06-64.53.02-129.06c-8.81.04-17.62.07-26.42-.02C.02,15.0848,0,9.5548.02,4.0348Z"/><path class="a" d="M65.54,4.5648c13.14-.11,26.28.03,39.42-.01.03,5.47.08,10.94-.04,16.41-7.56-.03-15.11.01-22.67-.03q.015,21.9,0,43.81c19.75-.07,39.51.03,59.26-.05-.15-20.02-.09-40.05-.03-60.07q8.37-.075,16.74,0c-.1,48.36.03,96.72-.06,145.08-5.58.01-11.15.03-16.72-.02,0-22.63-.04-45.26.02-67.89q-29.61.09-59.22.01c.06,22.6-.02,45.19.04,67.79-5.58.22-11.16.14-16.74.06Q65.42,77.1,65.54,4.5648Z"/><path class="a" d="M180.1,4.5948q36.705-.015,73.42-.02c-.01,5.52-.03,11.04.02,16.55q-29.115-.015-58.22-.01-.015,22.62,0,45.25,29.1-.015,58.21,0c-.04,5.55-.02,11.1-.01,16.66-19.41-.03-38.81,0-58.21-.02q0,24.885-.01,49.77c19.39-.03,38.79.03,58.19-.03.04,5.64.02,11.29.01,16.93-24.46.03-48.93.15-73.4-.06Q180.16,77.1048,180.1,4.5948Z"/></svg>