<svg xmlns="http://www.w3.org/2000/svg" viewBox="0 0 2519.9325 377.803"><defs><style>.a{fill:#b6b6bf;}</style></defs><path class="a" d="M74.0119,16.833c15.91-9.18,33.97-13.68,52.02-16.18,21.23-2.26,42.77,1.53,62.85,8.53,21.48,8.2,41.72,20.64,56.93,38.07,18.61,19.79,30.6,45.26,36.2,71.7.14,2.29-2.51,1.49-3.94,1.71-25.01-.06-50.02.02-75.03-.04-2.71.5-3.38-2.46-4.33-4.31-4.93-11.53-13.91-21.03-24.44-27.69-12.45-6.99-27.06-10.41-41.29-8.65-9.69,1.64-19.36,4.56-27.61,10.02-10.33,7.07-19.21,16.84-23.57,28.72-.25,1.78-2.17,1.99-3.63,1.93q-39.015,0-78.03.01c-.7-5.02,1.37-9.68,2.27-14.52C12.5719,68.213,38.9919,34.753,74.0119,16.833Z"/><path class="a" d="M636.6619,131.993c.09-13.52-.19-27.05.14-40.57,5.24-.14,10.49-.2,15.74.05q.24,102.525.02,205.06-7.89.27-15.77,0C636.4919,241.693,636.7519,186.843,636.6619,131.993Z"/><path class="a" d="M981.7319,91.453c5.24-.21,10.49-.19,15.75-.01.3,34.8.03,69.62.12,104.43.13,8.98-.87,18,.12,26.95,5.54-4.88,10.1-10.78,15.32-15.99,17.73-17.61,35.85-34.83,53.5-52.51,1.05-.88,1.97-2.43,3.58-2.13q8.925-.09,17.85.04c-19.91,19.95-40.12,39.58-59.95,59.59a1.938,1.938,0,0,0,.07,3.09c21.65,27.18,43.48,54.22,65.08,81.43-6.04.25-12.09.17-18.13.06-19.38-23.81-38.43-47.89-57.87-71.65-1.89-1.7-3.64,1.21-4.99,2.28-4.73,5.14-10.53,9.4-14.74,14.94-.3,18.18.53,36.37.07,54.56-5.26.19-10.53.16-15.78.01-.23-32.89-.04-65.79-.1-98.68C981.7119,162.393,981.4819,126.923,981.7319,91.453Z"/><path class="a" d="M2247.5719,91.533c5.22-.31,10.46-.28,15.69-.09.45,38.82.06,77.65.2,116.47-.03,30.51.13,61.03-.56,91.52-4.8.08-9.6.06-14.38.03-.5-6.23.17-12.5-.54-18.72-2.36.9-3.49,3.23-5.06,5-18.23,19.82-52.15,22.66-73.03,5.44-15.43-13.1-22.56-33.52-23.6-53.26-1.33-20.08-.28-41.33,9.61-59.36,6.97-13.08,19.26-24.04,34.13-26.76,17.18-3.48,36.57.23,49.3,12.92,3.01,2.44,4.81,6.16,8.08,8.27C2247.6619,145.843,2247.3319,118.683,2247.5719,91.533Zm-46.79,72.48c-10.26.78-20.31,5.77-26.44,14.14-9.38,12.44-12.49,28.5-12.57,43.78-.34,12.4-.05,25.08,4.16,36.9,3.09,9.23,8.67,17.86,16.66,23.58,7.14,4.91,16.06,6.8,24.64,6.33,10.14-.71,20.7-3.41,28.41-10.41,4.86-4.62,9.23-10.01,11.72-16.29.33-21.71.01-43.43.16-65.14.64-5.76-3.29-10.51-6.17-15.08C2232.6719,168.763,2216.1019,162.063,2200.7819,164.013Z"/><path class="a" d="M471.3819,102.223c23.58.08,47.19-.55,70.76.61,13.13,1.48,26.63,5.33,36.65,14.33,8.3,7.56,12.85,18.71,13.3,29.83.98,8.99.01,18.47-4.33,26.54-4.73,9.25-13.2,16.31-22.79,20.1a3.0887,3.0887,0,0,0-2.08,2.1,47.0217,47.0217,0,0,1,32.94,27.69c4.27,9.91,4.17,21.11,2.48,31.59-2.75,14.57-12.51,27.71-25.97,34.05-8.96,4.83-19.12,6.7-29.17,7.41-23.92-.02-47.83.26-71.75-.02Q471.2119,199.343,471.3819,102.223Zm16.22,14.01c.08,24.4-.12,48.81.1,73.21,15.5.22,31.01.04,46.51.25,12.8-.42,27-3.76,35.29-14.33,7.02-8.61,7.8-20.41,6.41-31-1.25-7.22-4.45-14.4-10.35-18.99-9.53-7.83-22.47-9.36-34.37-9.82-13.01.05-26.03.17-39.05.09A15.8165,15.8165,0,0,0,487.6019,116.233Zm.08,87.09c-.16,25.55-.02,51.1-.08,76.65.18.98-.43,3.46,1.42,3.1,15.35.25,30.72.02,46.09.11,10.74.03,21.98-1.33,31.25-7.19a36.6542,36.6542,0,0,0,17.11-30.14c.66-9.52-1.09-19.61-7.02-27.33-8.01-10.69-21.91-15.46-34.9-15.24C523.5919,203.183,505.6319,203.103,487.6819,203.323Z"/><path class="a" d="M1119.1819,102.213c17.62-.08,35.24-.02,52.86-.03,10.2.45,20.58.09,30.5,2.97a58.3515,58.3515,0,0,1,23.06,11.24c8.84,7.6,13.35,19.11,14.28,30.53.11,6.43.5,12.99-1.55,19.2-3.31,11.8-12.42,21.45-23.44,26.54a21.536,21.536,0,0,0-5.07,2.67c8.02,2.46,16.12,5.62,22.13,11.72a47.43,47.43,0,0,1,14.69,27.73c.93,9.79.29,19.92-3.39,29.14-2.59,7.31-7.65,13.44-13.29,18.63-11.35,9.44-26.3,13.49-40.85,13.94-23.31-.13-46.62.32-69.93.12-.58-22.54-.16-45.11-.3-67.66-.03-31.01.07-62.02.02-93.03C1119.1519,124.683,1118.6419,113.433,1119.1819,102.213Zm15.87,49.67c.28,12.56-.26,25.12.27,37.68,9.95.05,19.9.01,29.85.02,10.61-.16,21.47.98,31.83-2,7.68-2.11,15.41-5.83,20.25-12.4,6.66-8.8,8.4-20.71,6.12-31.35-1.31-8.21-5.77-16.01-12.88-20.51-9.55-6.11-21.24-7.46-32.33-7.8-14.21.19-28.43.15-42.65.07C1134.6519,127.653,1135.6119,139.803,1135.0519,151.883Zm.31,51.41c-.22,15.87-.03,31.74-.1,47.61.16,10.75-.34,21.53.27,32.27,17.19-.06,34.39.13,51.58-.09,11.9-.17,24.48-3.42,33.09-12.08,11.95-11.65,13.98-30.85,7.75-45.85-4.51-10.54-14.75-17.86-25.74-20.36-6.86-1.97-14.07-1.43-21.11-1.59C1165.8519,203.263,1150.6019,203.093,1135.3619,203.293Z"/><path class="a" d="M1833.3619,102.193c24.14.21,48.3-.55,72.43.47,13.14.92,26.44,4.52,37.16,12.44a49.7974,49.7974,0,0,1,17.11,22.77c5.78,16.22,5.45,35.24-3.68,50.2a53.1461,53.1461,0,0,1-22.65,21.37c-3.48,1.75-7.22,2.85-10.76,4.41,14.56,25.67,29.8,50.97,44.66,76.47,1.57,2.98,3.99,5.65,4.47,9.1-5.31.07-10.62.14-15.92.02-1.37.2-1.82-1.23-2.41-2.09-15.44-26.68-30.78-53.42-46.43-79.97-19.21-.04-38.42-.14-57.63.05-.14,27.37.07,54.73-.11,82.1-5.44.19-10.88.15-16.31.03-.63-10.87-.04-21.75-.27-32.63q.075-71.475.04-142.94C1832.8019,116.723,1833.3619,109.463,1833.3619,102.193Zm16.37,14.14c-.07,28.98-.19,57.96.06,86.94,19.43-.08,38.88.42,58.3-.28,13.04-1.07,25.94-7.82,32.99-19.06,5.46-8.13,7.32-18.31,6.37-27.96a41.6528,41.6528,0,0,0-6.92-21.46,40.6783,40.6783,0,0,0-22.82-15.85c-7.55-2.8-15.67-2.29-23.56-2.46C1879.3419,116.283,1864.5319,116.053,1849.7319,116.333Z"/><path class="a" d="M1289.3619,173.133c9.53-12.19,23.53-20.92,38.89-23.28,9.34-.5,18.86-.2,27.77,2.97,14.92,5.21,26.64,17.89,31.79,32.71,4.62,12.66,5.41,26.37,5.04,39.74-34.51.2-69.03-.05-103.54.12-1.04,17.2,4.24,35.3,16.85,47.46,16,16.74,44.16,17.84,62.77,4.89,4.33-2.86,7.69-6.87,11.16-10.66,3.13,2.2,6.21,4.48,9.22,6.87-5.41,8.6-13.66,15.18-22.74,19.57-8.93,4.13-18.78,5.25-28.47,5.89-7.45-.78-15-1.44-22.04-4.19-18.52-6.21-32.53-22.34-38.38-40.7-3.93-11.77-4.16-24.34-3.67-36.61A78.3191,78.3191,0,0,1,1289.3619,173.133Zm22.66-3.34c-7.73,5.23-13.37,13.06-17.14,21.5-2.47,6.66-5.15,13.69-4.44,20.91,28.76,0,57.53-.14,86.29.07,1.35-3.95.29-8.16-.3-12.15-1.78-10.99-7.09-21.64-15.68-28.86C1347.3419,159.833,1326.1819,159.613,1312.0219,169.793Z"/><path class="a" d="M705.8019,163.583c11.2-9.86,26.53-14.44,41.32-13.83,15-.47,31.27,3.94,41.4,15.64,7.27,7.99,10.57,18.91,10.6,29.57.51,21.98.44,43.98.43,65.97-.03,11.92-.07,24.15,4.27,35.45-5.19.15-10.38.15-15.56.07-1.59.31-1.61-1.52-1.96-2.52-1.34-5.65-1.72-11.46-2.44-17.21-2.9,2.1-4.93,5.12-7.69,7.36-8.34,7.63-19.15,11.98-30.11,14.18-3.65.26-7.29.55-10.9,1.13-9.51-.33-19.31-1.8-27.59-6.84-10.26-5.92-18.26-16.54-19.25-28.55.08-6.21-.74-12.62,1.5-18.56,4.48-13.92,17.46-23.55,31.05-27.64,20.33-6.48,41.95-4.62,62.97-5.13-.2-11.9,1.81-24.94-4.83-35.57-5.58-9.29-16.52-13.6-26.87-14.61-6.64.01-13.43-.6-19.84,1.59-8.07,1.58-15.04,6.59-20.2,12.85a23.2733,23.2733,0,0,0-5.33,14.52c-5.16.04-10.31.06-15.46,0C691.3219,180.503,697.4019,170.303,705.8019,163.583Zm30.87,62.53c-9.95,1.91-20.04,5.76-27,13.41-9.82,10.78-8.06,29.58,3.28,38.63,6.89,5.93,16.3,8.02,25.22,7.64,18.84-.29,38.44-11,45.63-28.97.26-10.71-.23-21.44-.25-32.16C767.9119,224.903,752.1719,223.673,736.6719,226.113Z"/><path class="a" d="M855.5819,163.373c8.35-7.71,19.36-11.77,30.47-13.42,12-.81,24.57-.14,35.53,5.33,16.87,8.1,28.99,26.3,28.32,45.21-4.79-.02-9.58.02-14.36-.04-.56-11.19-5.64-22.3-14.57-29.24-12.38-9.93-30.33-11.08-44.69-5.04-12.3,4.77-20.15,16.76-24.05,28.89-4.41,13.5-3.46,27.84-3.29,41.82,1.2,13.73,5.4,27.9,15.2,38.01,9.77,10.04,24.88,13.14,38.35,10.9,7.97-1.07,15.79-4.17,21.73-9.72,6.8-5.91,10.73-14.62,11.53-23.53,4.74-.05,9.48-.1,14.23.05.16,12.46-6.68,24.26-15.8,32.4-10.86,9.83-25.69,13.84-40.05,14.32-9.95-.93-20.34-2.05-29.08-7.34-11.23-6.14-19.9-16.46-24.91-28.16a88.1524,88.1524,0,0,1-6.84-30.88c.27-9.38-.77-18.86,1.11-28.13C836.8919,189.303,843.4719,173.793,855.5819,163.373Z"/><path class="a" d="M1442.7319,169.303c5.85-9,14.95-16.14,25.54-18.45,7.08-1.35,14.58-1.89,21.59.11a135.058,135.058,0,0,1-.17,14.37,49.5259,49.5259,0,0,0-25.08,1.34c-13.35,4.81-22.96,17.54-25.66,31.23-.12,32.85.08,65.7-.1,98.55q-7.74.075-15.46,0-.165-72.12.01-144.26c5.08-.01,10.16-.08,15.26.06.34,7.34-.09,14.71.48,22.05C1440.7419,172.953,1441.6519,171.053,1442.7319,169.303Z"/><path class="a" d="M1536.2219,166.093a40.7341,40.7341,0,0,1,28.82-16.14c5.5-.17,11.43-1.07,16.55,1.51-.22,4.6-.2,9.22-.83,13.79-8.76-1.57-18.14-1.28-26.48,2.03-12.61,5.27-21.26,17.49-24.27,30.55-.44,11.69.39,23.38.25,35.08q-.015,24-.01,48.01c-.11,5.24.29,10.5-.32,15.72-5.12-.04-10.24.12-15.35-.12q-.165-72.135.02-144.28c5.08-.12,10.16-.07,15.26-.05.22,7.54-.19,15.09.27,22.62C1532.6719,172.283,1533.9319,168.833,1536.2219,166.093Z"/><path class="a" d="M2038.9819,152.613c8.16-2.38,16.71-1.89,25.1-1.81,8.1.86,16.34,2.54,23.43,6.76,8.02,4.39,14.92,11.28,18.31,19.87,3.4,8.35,4.18,17.52,4.02,26.46q-.03,28.485-.01,56.96c.21,8.04-.5,16.16.95,24.12.4,4.96,2.18,9.63,3.3,14.45-5.54.13-11.08.03-16.6.07-2.72-6.44-1.87-13.59-3.71-20.22-16.83,20.88-47.75,29.28-72.51,18.61-7.91-3.48-14.4-9.75-18.97-17a42.3638,42.3638,0,0,1-2.85-33.83c3.09-9.15,10-16.55,18.13-21.56,13.92-8.41,30.6-10.58,46.57-10.73,9.91.09,19.82-.09,29.74-.23.11-10.86,1.81-22.27-2.82-32.52-3.49-8.09-11.02-13.95-19.38-16.35a54.0145,54.0145,0,0,0-33.97,1.06c-7.32,3.04-14.57,7.52-18.33,14.77-2.23,3.6-2.42,7.9-3.49,11.89-4.77-.15-9.53.11-14.28-.11-1.43-1.03-.61-2.89-.61-4.32a35.2436,35.2436,0,0,1,10.45-20.66C2018.7619,160.383,2028.6519,155.313,2038.9819,152.613Zm.28,77.24c-9.45,3-18.94,8.37-23.69,17.43-6.37,12.47-1.43,29.19,10.66,36.24,8.29,5.32,18.52,5.65,28.02,4.64,8.99-1.27,17.82-4.55,24.94-10.28,6.31-4.63,11.74-10.87,14.47-18.27.36-10.96.29-21.99.01-32.96C2075.5219,226.973,2057.0219,225.173,2039.2619,229.853Z"/><path class="a" d="M2315.1619,165.033a60.15,60.15,0,0,1,27.85-13.29c6.31-1.39,12.78-.92,19.2-1,13.74.47,27.91,5.47,37.24,15.92,6.55,7.13,9.4,16.8,10.39,26.25.28,24.67.54,49.35.42,74.03-.22,10.94.6,22.04,4.32,32.41-5.65.26-11.3.08-16.94.13-2.27-6.32-2.04-13.07-3.06-19.6a4.9783,4.9783,0,0,0-2.58,1.72c-12.32,14.12-31.34,21.48-49.91,20.89-12.05-.61-24.67-4.41-33.08-13.5a36.8231,36.8231,0,0,1-10.19-17.61c-2.34-11.21-1.31-23.74,5.55-33.25,7.69-11.16,20.53-17.51,33.43-20.51,18.5-4.39,37.63-2.37,56.46-2.92.24-7.26.16-14.53.02-21.79-.91-8.5-4.75-17.18-11.97-22.13-5.44-4.29-12.34-6.03-19.07-6.96-13.01-1.6-26.97,1.42-37.17,9.94a25.576,25.576,0,0,0-9.36,19.53q-7.65.105-15.28,0C2300.5119,182.263,2307.0219,171.953,2315.1619,165.033Zm32.97,63.11a49.0714,49.0714,0,0,0-24.13,9.63,27.9749,27.9749,0,0,0-11.1,22.13,29.6387,29.6387,0,0,0,7.11,18.02c4.85,5.88,12.22,9.01,19.58,10.33,11.28,1.13,23.06-.34,33.12-5.84,9.3-5.31,17.97-13.15,21.61-23.45.14-10.78.09-21.57.01-32.36-8.76-.39-17.51.17-26.26.01C2361.3819,226.383,2354.7319,227.253,2348.1319,228.143Z"/><path class="a" d="M2476.7219,164.503c10.35-12.06,28.05-16.29,43.14-12.48.09,4.82.12,9.64-.07,14.45-12.21-2.54-26.07-1.15-36.04,6.96-8.01,6.27-13.26,15.62-15.67,25.41-.39,5.7-.04,11.43-.16,17.15.65,18.31.2,36.64.34,54.96-.19,9.56.38,19.15-.33,28.68-5.16.06-10.31,0-15.45-.21q-.195-73.095-.01-146.2c5.12-.09,10.25-.05,15.39-.03.37,7.59-.51,15.24.54,22.78C2471.2719,172.223,2473.3319,167.873,2476.7219,164.503Z"/><path class="a" d="M1592.0919,152.253c5.61-.07,11.23-.23,16.84.09,13.88,38.78,28.56,77.27,42.68,115.95a38.7674,38.7674,0,0,0,2.53,5.67c3.5-7.57,5.64-15.7,8.58-23.5,11.36-32.73,22.84-65.42,34.1-98.18,5.44-.18,10.89-.14,16.35-.04-2.47,8.78-6.22,17.16-9.17,25.79q-23.25,63.525-46.49,127.04c-3.24,8.68-6.07,17.54-10.21,25.85-4.21,8.87-11.06,16.85-20.02,21.09-6.38,3.09-13.6,2.89-20.49,2.72a29.2939,29.2939,0,0,1-7.27-1.44c-.14-4.21-.25-8.42.02-12.63,7.5,1.21,15.45,1.34,22.44-2.1,8.99-3.85,13.53-13.23,17.03-21.78,2.39-6.97,5.21-13.8,7.35-20.84-1.75-6.85-4.97-13.29-7.26-19.99q-23.145-60.585-46.28-121.16C1592.6419,154.153,1592.2719,152.883,1592.0919,152.253Z"/><path class="a" d="M.1519,165.623c18.65.11,37.3-.21,55.95.18,7.76.85,15.67-1.09,23.33.64,7.4,22.22,28.41,39.15,51.7,41.56,7.7.1,15.54.68,23.09-1.21,19.15-4.73,36.14-18.5,43.42-37.03.74-1.22.73-3.43,2.51-3.62,20.31-.7,40.65-.56,60.97-.31,6.95.19,14.07-.47,20.9.7-5.82,26.2-17.65,50.53-30.49,73.93-.84,1.26-1.71,3.14-3.5,2.96-24.64.26-49.29.21-73.94.2-47.2-.05-94.41.15-141.61-.18a23.5007,23.5007,0,0,1-3.35-4.7c-11.11-19.18-20.51-39.51-26.44-60.91C2.1219,173.683-.3581,169.913.1519,165.623Z"/><path class="a" d="M61.9119,286.823q77.46-.48,154.94-.02c-18.2,25.38-39.3,48.52-60,71.86-5.61,6.63-11.24,13.28-17.68,19.14-5.48-6.48-11.86-12.12-17.21-18.71-16.57-18.47-32.81-37.26-48.26-56.68C69.7019,297.273,65.2219,292.443,61.9119,286.823Z"/></svg>