<svg xmlns="http://www.w3.org/2000/svg" viewBox="0 0 556.9727 146.154"><defs><style>.a{fill:#b6b6bf;}</style></defs><path class="a" d="M71.97,5.13A67.1493,67.1493,0,0,1,111.7,1.44a66.1759,66.1759,0,0,1,32.64,17.83c-2.62,3.09-5.62,5.82-8.52,8.65a53.7245,53.7245,0,0,0-75.62-.59,52.8413,52.8413,0,0,0-3.94,71.46,53.7607,53.7607,0,0,0,79.58,3.71c2.87,2.8,5.83,5.54,8.54,8.51A65.463,65.463,0,0,1,41.81,30.92,65.7758,65.7758,0,0,1,71.97,5.13Z"/><path class="a" d="M64.76,30.89a48.04,48.04,0,0,1,66.88.76c-2.87,2.78-5.69,5.61-8.51,8.44a36.4448,36.4448,0,0,0-33.5-9.42C74.3,33.99,62.32,48.44,62.14,64.16c-.68,14.94,9.31,29.49,23.43,34.35,12.77,4.83,27.88,1.32,37.57-8.2,2.83,2.84,5.68,5.65,8.47,8.52a48.0947,48.0947,0,0,1-69.9-2.5,47.2851,47.2851,0,0,1,3.05-65.44Z"/><path class="a" d="M7.92,43.08A33.6894,33.6894,0,0,1,33.03,31.55c-7.31,14.91-10.26,32.08-7.26,48.49,4.42,27.49,27.3,49.97,53.9,56.72.04,2.37.04,4.75.03,7.14a82.6309,82.6309,0,0,1-48.57-32.97c-3.36-4.56-5.7-9.72-8.32-14.7-6.27-2.94-12.58-6.49-16.57-12.39C-2.71,72-1.93,54.15,7.92,43.08Z"/><path class="a" d="M155.89,55.87A32.0551,32.0551,0,0,1,177.2,33.46a39.5039,39.5039,0,0,1,14.74-.45,30.6188,30.6188,0,0,1,22.17,17.87c-4.2-.05-8.42.17-12.61-.25-4.26-3.95-9.51-7.35-15.54-7.28-10.99-.44-20.15,10.1-19.9,20.75-.41,11.4,10.25,22.44,21.9,20.81,5.22-.38,9.35-3.79,13.2-6.99,4.18-.34,8.4-.08,12.6-.07-4.2,10.23-14.69,17.64-25.79,17.76-4.86.15-9.91-.07-14.38-2.19C159.6,87.34,151.86,70.53,155.89,55.87Z"/><path class="a" d="M273.33,33.24c3.62-.02,7.25-.03,10.87,0q.015,30.615,0,61.22c-3.63.01-7.26.06-10.89-.06C273.36,74.01,273.33,53.63,273.33,33.24Z"/><path class="a" d="M292.78,33.24c3.6-.03,7.21-.02,10.81,0,0,20.39-.03,40.78.02,61.17-3.61.1-7.21.07-10.81.05C292.74,74.05,292.78,53.64,292.78,33.24Z"/><path class="a" d="M331.59,35.79c9.03-2.83,19.52-1.3,26.95,4.7a33.1638,33.1638,0,0,1,8.39,10.32c-2.25.03-4.49.05-6.74.07-3.26-4.11-7.18-8.06-12.36-9.57-8.2-2.71-17.85-.49-23.63,6.03-8.18,8.17-9.11,21.96-3.06,31.59,4.32,7.05,12.46,11.8,20.85,11,7.26-.15,13.57-4.52,17.85-10.13,2.18.06,4.36.05,6.55.11-3.83,7.24-10.54,13.11-18.64,14.91-8.4,1.57-17.72.51-24.6-4.93-12.24-9.02-15.5-27.49-7.92-40.49A30.1119,30.1119,0,0,1,331.59,35.79Z"/><path class="a" d="M394.41,35.59c1.83.01,3.67.01,5.51-.02.09,3.08.09,6.17,0,9.25-1.85-.03-3.69-.04-5.52-.04C394.39,41.72,394.4,38.65,394.41,35.59Z"/><path class="a" d="M412.85,35.55c1.85.04,3.7.08,5.56.1-.02,4.77-.01,9.54-.03,14.31,2.76,0,5.52.03,8.29.07q-.045,2.85-.03,5.7c-2.68.29-5.83-.73-8.2.6-.13,12.72.03,25.44-.07,38.16-1.86-.03-3.72-.04-5.57-.02-.05-12.91-.02-25.82-.02-38.73-2.76,0-5.51-.03-8.26-.03.01-1.87,0-3.74-.02-5.62,2.76-.09,5.53-.15,8.3-.15C412.77,45.15,412.71,40.35,412.85,35.55Z"/><path class="a" d="M500.41,35.59c1.83.01,3.67.01,5.51-.02.09,3.08.09,6.17,0,9.25q-2.775-.045-5.52-.03C500.39,41.72,500.4,38.65,500.41,35.59Z"/><path class="a" d="M218.33,67.16c1.27-10.23,10.22-19.39,20.69-19.87,6.4-.6,12.62,2.59,16.51,7.59-.07-2.11-.07-4.21-.09-6.31,3.31-.04,6.63-.04,9.94-.02q.03,22.965-.01,45.92c-3.31.01-6.61.01-9.91-.02.01-2.03,0-4.05.06-6.08-7.57,10.15-25.03,9.75-32.32-.5C218.77,82.03,217.28,74.33,218.33,67.16Zm20-8.61c-9.04,2.29-12.4,14.79-6.7,21.81,4.12,5.47,12.69,6.59,18.18,2.6,6.5-4.83,7.23-15.5,1.53-21.22C248.11,58.21,242.8,57.37,238.33,58.55Z"/><path class="a" d="M435.18,55.32c6.69-7.08,18.19-8.49,26.74-4.16,8.26,4.3,12.04,13.92,11.92,22.85-13.14.18-26.29-.09-39.44.14.61,3.93,1.76,7.98,4.62,10.89,5.37,6.03,15.43,6.81,21.79,1.92,2.34-1.72,3.86-4.25,5.4-6.65,2.07.05,4.14.03,6.22.09-2.61,6.29-7.35,12.05-14.01,14.18-7.53,2.08-16.44.96-22.12-4.79C426.6,81.22,426.08,64.49,435.18,55.32Zm3.87,3.87c-2.55,2.65-3.66,6.24-4.46,9.74q16.5.12,33.01,0c-1.21-4.61-3.18-9.42-7.31-12.14C453.83,52.65,444.24,53.27,439.05,59.19Z"/><path class="a" d="M514.6,62.79c3.27-8.09,11.57-13.92,20.36-13.78,6.47-.43,12.61,2.76,16.76,7.58-.01-2.21-.01-4.41.01-6.62q2.595.03,5.22,0,.045,22.26,0,44.52c-1.75-.03-3.5-.04-5.23-.01q-.015-3.3.04-6.6c-7.67,9.51-23.62,10.31-32.11,1.52C512.6,82.71,511.09,71.61,514.6,62.79Zm17.77-8.18c-7,1.26-12.44,7.56-13.48,14.48-2.05,9.27,4.42,19.78,14.06,20.99,10.18,1.74,19.07-8.22,18.75-17.98C552.12,62.19,542.51,52.41,532.37,54.61Z"/><path class="a" d="M373.97,49.96c1.78.03,3.56.04,5.35.05,0,1.58-.01,3.17-.03,4.75a14.1862,14.1862,0,0,1,10.06-5.63c.05,2.08.09,4.17.16,6.26-4.31.51-9.02,2.91-9.38,7.76-.93,10.39-.17,20.88-.42,31.31q-2.865,0-5.73.03C373.93,79.64,373.97,64.8,373.97,49.96Z"/><path class="a" d="M394.4,50.02c1.84-.01,3.69-.04,5.54-.06q.135,22.275.01,44.54c-1.65-.02-3.3.04-4.94-.07-1.21-1.05-.39-2.92-.64-4.31C394.43,76.75,394.38,63.39,394.4,50.02Z"/><path class="a" d="M480,49.96c1.77.03,3.54.04,5.32.04q0,2.4-.03,4.8a14.1837,14.1837,0,0,1,10.1-5.68c.04,2.09.06,4.18.1,6.27-4.29.52-8.97,2.93-9.34,7.75-.96,10.4-.19,20.89-.44,31.32-1.9,0-3.8.01-5.69.03C479.97,79.64,480,64.8,480,49.96Z"/><path class="a" d="M500.4,50.02c1.84-.01,3.69-.04,5.54-.06q.135,22.275.01,44.54c-1.76-.35-4.17.73-5.5-.68C500.31,79.22,500.44,64.62,500.4,50.02Z"/><path class="a" d="M83.25,134.34c5.82-.42,11.7-.23,17.54-.11,2.96.18,2.47,3.79,2.53,5.86-.21,1.96.55,4.73-1.59,5.87-6.18.27-12.4.24-18.58.02-2.39-.86-1.59-3.93-1.8-5.88C81.5,138.14,80.84,135.16,83.25,134.34Z"/></svg>