<svg xmlns="http://www.w3.org/2000/svg" viewBox="0 0 1673.02 300.176"><defs><style>.a{fill:#b6b6bf;}</style></defs><path class="a" d="M1066.99.1352c107.46-.27,214.93-.04,322.39-.11,94.55.07,189.1-.16,283.64.11-3.98,5.07-8.93,9.24-13.36,13.89q-71.76,71.745-143.5,143.5c-21.6,21.4-42.73,43.27-64.35,64.66q-37.995,38.01-76,76.02a4.9219,4.9219,0,0,1-4.43,1.92q-152.16-.09-304.33-.05Q1066.9,150.1052,1066.99.1352Zm68.53,53.24c-18.01,2.69-36.35,9.84-48.33,24.09-7.66,9.59-12.56,21.87-11.32,34.27-1,10.74,3.09,21.38,9.58,29.8,3.81,5.6,9.56,9.46,15.14,13.13,10.45,6.46,21.95,11.03,33.63,14.76,8.63,2.82,17.67,4.94,25.47,9.79,3.39,2.16,6.69,5.4,7.04,9.63-.3,5.95-4.77,11.26-10.27,13.25-9.03,3.03-18.82,2.64-28.08,1.1-9.02-1.09-17.56-4.51-25.62-8.58-2.94-1.42-5.62-3.58-8.97-3.86q-9.405,17.79-17.98,36.01c9.08,6.22,19.67,9.81,30.1,13.07,7.72,1.92,15.47,4.35,23.48,4.46a99.7375,99.7375,0,0,0,47.45-4.46c7.8-2.62,14.6-7.29,21.48-11.67-.9,4.88-3.14,9.35-4.75,14q27.195.195,54.4-.01c3.94-8.62,6.13-17.93,9.23-26.87a18.1367,18.1367,0,0,1,4.75.44,85.4316,85.4316,0,0,0,27.43,3.53c10.29.59,20.46-1.56,30.35-4.23,4.08,8.67,5.9,18.21,9.33,27.15,29.53.02,59.08.31,88.61-.15.59-19.19-.15-38.42.4-57.61,10.75-.39,21.52-.04,32.28-.18,15.65-2.04,31.6-7.13,43.33-18.13a56.5833,56.5833,0,0,0,17.2-43.37c-.22-6.02.63-12.15-.81-18.07a55.51,55.51,0,0,0-13.64-28.05c-5.83-6.12-13.3-10.39-21.12-13.44-10.44-4.31-21.76-5.74-32.89-6.93-25.16.02-50.32-.05-75.47.04-.17,34.82-.03,69.64-.07,104.46-.22,10.36.45,20.77-.38,31.1-3.16-3.98-4.07-9.1-5.95-13.71-15.09-40.56-29.61-81.35-44.91-121.83q-26.235-.135-52.47.01c-13.34,36.1-27.02,72.07-40.41,108.15-.85,2.24-1.49,4.71-3.42,6.29-1.96-3.74-3.31-7.77-5.43-11.42-2.85-5.01-7.07-9.04-11.35-12.82-14.56-11.57-32.86-16.3-50.12-22.24-8.12-3.2-16.69-6.36-23.08-12.52-2.67-2.21-2.66-5.71-2.3-8.86,2.98-6.29,10.65-8.06,16.94-8.98,4.43-1.24,8.98-.46,13.42.26,14.12.14,27.15,6.12,40.04,11.18,6.15-12.61,14.34-24.13,20.37-36.79-18.9-8.69-39.31-14.55-60.13-15.67C1150.33,51.1352,1142.91,53.0952,1135.52,53.3752Z"/><path class="a" d="M1418.07,95.4252c9.1-.52,18.32-.28,27.19,2.03,5.9,1.77,12.01,5.15,14.52,11.11,3.87,8.63,2.79,19.74-3.76,26.82-5.68,5.67-14.02,6.85-21.62,7.81-5.44.12-10.88.11-16.31-.14C1417.74,127.1852,1417.78,111.2952,1418.07,95.4252Z"/><path class="a" d="M502.96,108.2552c7.63-5.37,17.2-7.41,26.42-7.07a49.3435,49.3435,0,0,1,37.59,15.99c.75,1.03,3.1,2.47,1.74,3.83-5.37,4.72-11.06,9.09-16.52,13.7-6.09-5.58-13.06-11.57-21.77-11.73-4.2-.05-9.61-.56-12.17,3.55-.84,2.36-.99,5.53,1.01,7.39,3.02,3.41,7.66,4.51,11.86,5.75,10.82,2.86,22.42,4.8,31.54,11.75,11.2,8.38,11.86,25.7,4.04,36.6-5.39,7.56-14.43,11.6-23.36,13.11-13.31,2.3-27.76,1.18-39.64-5.68a46.7791,46.7791,0,0,1-11.43-9.6c-1.99-2.22-4.04-4.54-4.87-7.47,6.56-3.68,12.61-8.29,19.39-11.59,5.42,8.21,14.5,14.39,24.55,14.48,4.68.13,10.23-.36,13.37-4.29,1.55-1.66,1.29-4.11,1.01-6.17-1.81-3.72-5.92-5.25-9.57-6.51-11.54-3.62-24.16-4.99-34.35-11.99a23.2938,23.2938,0,0,1-10.04-20.57A27.7635,27.7635,0,0,1,502.96,108.2552Z"/><path class="a" d="M0,103.1852c27.36-.16,54.73,0,82.1-.08.02,7.33.12,14.67-.07,22.01-9.3.08-18.61-.15-27.91.13,0,25,.06,50.01-.03,75.02-8.73-.05-17.47,0-26.21-.02-.02-25.04.02-50.07-.02-75.1-9.27-.07-18.55.03-27.82-.06C-.03,117.7852.03,110.4852,0,103.1852Z"/><path class="a" d="M93.66,103.1052c8.74.04,17.48-.01,26.22.02.04,12-.08,24,.06,35.99,10.41-.05,20.83.11,31.23-.06l.62-.55c.19-11.74.09-23.5.03-35.25,8.76-.32,17.52-.03,26.28-.15q.075,48.555.01,97.13c-8.72.04-17.44-.02-26.15.03-.15-13-.1-26.01-.02-39.01q-16.05-.33-32.12,0c.08,13,.13,26.01-.02,39.01-8.71-.05-17.43.01-26.15-.03Q93.59,151.6652,93.66,103.1052Z"/><path class="a" d="M195,103.1852q34.875-.165,69.76,0c-.03,7.3.03,14.6-.04,21.9-14.32.09-28.63-.01-42.95.05q-.045,7.605,0,15.22,15.09.045,30.17.01c.13,6.96.05,13.92.06,20.88-10.08.01-20.15-.02-30.22.02-.02,5.95-.09,11.9.05,17.85,15.02.02,30.03-.01,45.05.01v21.12c-23.96-.03-47.92.06-71.88-.05Q195.015,151.6852,195,103.1852Z"/><path class="a" d="M317,103.1852c16.47-.08,32.96-.17,49.44.04,8.74.58,18.63,2.97,23.77,10.75,3.48,4.87,3.07,11.11,2.9,16.79a18.7446,18.7446,0,0,1-9.29,15.27,73.8312,73.8312,0,0,1-7.36,3.35c6.76,1.6,13.91,4.79,16.98,11.47,3.99,8.95,3.5,20.36-2.67,28.23-6.39,7.69-16.81,10.29-26.35,11.11-15.81.1-31.62.07-47.42,0Q317.015,151.6852,317,103.1852Zm26,38.23c5.53.1,11.07.22,16.6-.11,4.8-.15,9.53-4.42,8.52-9.51.52-4.92-4.48-7.93-8.76-8.4-5.42-.35-10.85-.06-16.26-.14C342.9,129.3052,343.06,135.3652,343,141.4152Zm.53,18.71q-.075,10.05,0,20.11c6.92-.53,14.27,1.28,20.89-1.3,5.18-1.93,6.81-8.41,4.88-13.18-1.77-3.65-6-5.41-9.86-5.55C354.14,160.0052,348.83,160.1652,343.53,160.1252Z"/><path class="a" d="M408.76,103.1252q34.62-.015,69.24,0,.015,10.92,0,21.86c-14.39.41-28.79-.14-43.18.27.11,5.03.03,10.06.08,15.09,10.29.17,20.59-.22,30.88.21-.13,6.66.12,13.33-.09,19.99l-.56.61c-10.07.25-20.16-.01-30.23.11-.02,5.95-.07,11.9.04,17.85q22.53.015,45.06.01.015,10.56,0,21.12H408.76Q408.73,151.69,408.76,103.1252Z"/><path class="a" d="M576,103.1852q41.37-.165,82.76,0c-.03,7.3.03,14.6-.04,21.9-9.32.08-18.63-.01-27.95.05q-.045,37.53-.01,75.06c-8.92.07-17.84.09-26.76-.01q0-37.53-.01-75.05c-9.32-.06-18.64.03-27.95-.05C575.96,117.7852,576.03,110.4852,576,103.1852Z"/><path class="a" d="M703,103.1852c15.21-.09,30.42-.15,45.64.03,9.77.67,20.53,3.32,26.92,11.36,4.46,5.34,5.59,12.44,6.04,19.16-.15,7.56-1.31,15.75-6.66,21.53-3.25,3.88-7.98,5.89-12.35,8.17,6.78,12.23,13.73,24.38,20.27,36.74-9.26.18-18.52-.02-27.77.11-6.51-10.91-12.53-22.11-18.59-33.27-2.33-.13-4.66-.16-6.97-.17-.08,11.08.01,22.17-.05,33.25-8.82.31-17.66.12-26.48.1Q703.015,151.6852,703,103.1852Zm26,43.12c5.71.06,11.44.24,17.15-.27,3.26-.66,7.02-1.9,8.43-5.25,2.38-4.78,1.48-11.89-3.68-14.45-6.78-3.25-14.5-1.53-21.73-1.98C728.8,131.6652,729.1,138.9852,729,146.3052Z"/><path class="a" d="M792.82,103.2552c8.93-.24,17.88-.2,26.82-.01.03,20.49-.1,40.99.06,61.49-.17,6.04,2.68,13.09,8.96,14.91,5.24,1.27,11.69,1.2,15.71-2.93,3.18-3.47,3.96-8.4,4.36-12.92.06-20.23,0-40.45.03-60.67,8.66.02,17.33-.08,26,.06-.03,20.2.01,40.41-.01,60.62-.57,9.09-2.45,18.64-8.44,25.83-5.65,6.89-14.42,10.34-23.04,11.54-12.01.75-25.05,1.08-35.51-5.84-10.28-6.45-14.36-19.04-14.84-30.59C792.78,144.2452,792.99,123.7552,792.82,103.2552Z"/><path class="a" d="M890.76,103.1252c8.68.02,17.36-.08,26.05.05q12.21,18.81,24.5,37.56c3.56,5.17,6.59,10.71,10.52,15.63.5-17.74-.12-35.5.31-53.24,7.98-.02,15.97.02,23.96-.02q.075,48.555.01,97.13c-6.94.03-13.87-.01-20.8.04-1.4-.15-3.32.43-4.12-1.11-12.11-17.53-23.93-35.26-36.17-52.69-.34,17.91-.02,35.83-.16,53.75-7.99.07-15.99-.06-23.97.08C890.58,167.9152,890.84,135.5152,890.76,103.1252Z"/><path class="a" d="M1288.14,118.7552c.58.18,1.73.53,2.31.71,5.65,17.1,10.63,34.43,16.21,51.56a2.9518,2.9518,0,0,1-2.11,4.2,53.8691,53.8691,0,0,1-33.17-.97c.13-4.48,1.8-8.65,3.2-12.84C1279.11,147.1952,1283.49,132.9352,1288.14,118.7552Z"/></svg>