<svg xmlns="http://www.w3.org/2000/svg" viewBox="0 0 569.3397 218.183"><defs><style>.a{fill:#b6b6bf;}</style></defs><path class="a" d="M315.899,148.816a10.1705,10.1705,0,0,1,4.36.898l.67-2.275a11.5521,11.5521,0,0,0-5.126-.963c-6.7,0-11.285,4.584-11.285,11.35,0,7.086,4.588,10.966,10.678,10.966a13.79,13.79,0,0,0,5.707-1.058l-.576-2.214a11.17,11.17,0,0,1-4.556.897c-5.258,0-8.303-3.396-8.303-8.688,0-5.675,3.368-8.913,8.433-8.913Zm41.36,7.052h-10.45v-9.04h-2.787v21.608h2.787v-10.13h10.45v10.13h2.82V146.829h-2.82v9.039Zm40.365,3.753c0,4.774-2.05,6.89-5.257,6.89-2.887,0-5.032-2.05-5.032-6.89V146.827h-2.82v12.727c0,6.702,3.333,9.234,7.7569,9.234,4.6781,0,8.176-2.726,8.176-9.362v-12.6h-2.82v12.793Zm36.52-1.476v-.098a5.6678,5.6678,0,0,0,4.07-5.513,5.403,5.403,0,0,0-1.6961-4.105c-1.35-1.218-3.27-1.764-6.25-1.764a29.0689,29.0689,0,0,0-5.3529.448v21.32h2.786v-9.362h2.63c2.53.096,3.685,1.22,4.327,4.2a28.9237,28.9237,0,0,0,1.44,5.16h2.886a34.1213,34.1213,0,0,1-1.666-5.93c-.512-2.24-1.507-3.78-3.173-4.357Zm-3.59-1.185h-2.8551v-7.89a11.3735,11.3735,0,0,1,2.758-.257c2.95.033,4.97,1.25,4.97,4.04,0,2.47-1.892,4.106-4.8739,4.106Zm41.3259-8.147a10.17,10.17,0,0,1,4.36.898l.675-2.274a11.6116,11.6116,0,0,0-5.13-.963c-6.7,0-11.285,4.584-11.285,11.35,0,7.086,4.586,10.966,10.676,10.966a13.733,13.733,0,0,0,5.7-1.06l-.574-2.213a11.14,11.14,0,0,1-4.55.897c-5.26,0-8.305-3.396-8.305-8.688,0-5.675,3.366-8.913,8.43-8.913Zm41.36-1.987v9.04H502.79v-9.04H500v21.607h2.79v-10.13h10.45v10.13h2.82V146.826Z"/><path class="a" d="M560.121,100.262c-5.436,1.917-10.084,3.553-17.384,3.198-4.34-.212-8.504-.808-12.652-1.25-4.196-.447-8.292-1.25-12.656-1.25-16.316,0-27.647,4.84-39.63,9.037-1.59.557-3.442,1.73-5.146.974.654-1.33,2.06-2.095,3.197-2.92,6.047-4.4,11.132-8.82,15.437-15.16,1.68-2.474,3.184-5.583,2.363-9.316a7.7842,7.7842,0,0,0-4.31-5.284c-2.547-1.225-9.45-.996-12.1-.277-3.37.914-6.353,2.71-9.458,4.17a44.66,44.66,0,0,0-8.202,5.564,46.716,46.716,0,0,0-10.01,10.43c-.917,1.347-1.49,3.13-2.643,4.31-.99,1.008-2.75,1.714-4.312,2.642-1.35.8-3.41,2.374-4.867,2.223-2.07-.212-3.64-4.052-3.2-6.675.286-1.704,2.39-3.284,3.2-4.172,2.81-3.07,4.58-4.682,7.23-7.51,1.33-1.417,2.337-2.963,3.338-4.172,4.163-5.016,8.306-10.237,13.35-16.408,2.113-2.584,3.98-5.828,5.98-8.76a70.8444,70.8444,0,0,0,5.425-9.456,40.7343,40.7343,0,0,0,2.503-4.867c1.728-5.187,4.76-12.206.697-17.522-1.296-1.69-3.763-4.04-6.26-4.17-1.493-.078-2.846,1.227-4.032,2.086A98.6117,98.6117,0,0,0,445.122,45.89,124.3678,124.3678,0,0,0,431.91,67.72c-.815,1.7-2.24,7.117-4.032,7.79a13.7988,13.7988,0,0,1-3.475.277,39.9919,39.9919,0,0,0-15.02,4.17c-1.867.873-3.755,1.44-5.283,2.366a86.7955,86.7955,0,0,0-9.04,6.257c-2.79,2.228-5.03,5.157-7.925,7.37-2.37,1.814-6.155,3.114-9.178,4.45a42.2286,42.2286,0,0,1-4.59,1.948c-1.533.504-4.115,1.602-5.004.696-.906-.918.46-4.705.972-6.12.833-2.303,1.802-4.167,2.225-5.84,1.14-4.518-.397-9.628-4.172-10.985-2.565-.924-4.903.05-7.092,1.11-1.46.708-3.134,1.255-4.312,1.948-1.58.93-2.737,2.487-4.727,3.613-1.482.84-3.408,1.575-5.145,2.366-3.792,1.723-6.145,3.356-9.875,5.283-1.412.73-4.11,2.512-5.283,2.365-1.193-.15-2.566-2.618-2.78-4.033-.53-3.453,2.06-5.47,4.033-7.092,1.663-1.367,3.815-3.512,6.675-2.92,1.164.243,1.39,1.076,2.083,1.948,2.262,2.834,6.906,1.364,9.316-1.808a32.6988,32.6988,0,0,0,1.814-3.06,15.6951,15.6951,0,0,0,1.666-3.197c1.596-5.408-3.73-7.764-8.484-7.51-1.167.063-2.477.523-3.753.695a68.8815,68.8815,0,0,0-10.986,2.503c-11.79,3.51-22.243,6.83-32.956,11.823-1.674.778-5.05,2.766-6.395,2.64-1.68-.155-2.28-2.646-4.31-3.058-2.702-.546-5.542,1.143-7.23,1.947a24.5575,24.5575,0,0,0-2.504,1.113,26.8446,26.8446,0,0,0-5.84,6.258c-1.013,1.686-.95,3.267-2.226,4.59-.942.98-2.85,1.773-4.45,2.643-2.6781,1.458-7.1051,3.615-9.594,4.867-1.393.7-4.243,2.38-5.146.277.588-3.6,2.764-6.344,4.728-8.898,4.043-5.262,7.578-10.527,11.68-15.715,2.038-2.578,4.3259-5.214,5.01-8.76,1.028-5.364-1.418-12.673-5.703-13.907-2.73-.785-5.963.476-6.4,2.642-.15.75.235,1.966.14,2.92-.397,4.03-2.513,8.736-4.73,10.985-1.6,1.625-3.667,3.073-5.56,4.73-9.134,7.99-18.95,15.63-30.18,21.274-2.72,1.37-4.21,1.835-7.086,3.2a14.0269,14.0269,0,0,1-3.895,1.25c-5.5.853-2.986-3.048-1.393-5.7.97-1.614,1.685-3.02,2.504-4.173,2.096-2.95,4.304-5.332,5.425-7.927a8.9353,8.9353,0,0,0,.555-5.006,4.94,4.94,0,0,0-2.64-3.06,6.5365,6.5365,0,0,0-3.616-1.53c-1.857-.06-3.146,2.412-4.45,3.616-4.382,4.042-8.118,7.126-12.655,10.847-4.184,3.428-8.188,7.334-13.21,10.15-1.16.65-4.278,2.785-5.704,1.67-1.34-1.05.752-4.702,1.81-6.258a30.0255,30.0255,0,0,1,4.03-4.73c8.353-8.047,18.797-13.734,30.87-17.105,2.722-.76,4.765-1.085,5.565-3.477,1.195-3.577-3.883-6.447-6.256-7.37a19.0884,19.0884,0,0,0-6.258-.697c-2.15.087-4.292.03-6.12.28-3.158.43-6.396,1.42-9.594,2.086a365.4654,365.4654,0,0,0-63.27,19.05,43.9535,43.9535,0,0,0-12.1-10.985c11.655-9,24.296-20.145,31.15-34.764,2.255-4.81,5.005-10.77,5.005-17.104a23.9057,23.9057,0,0,0-4.728-13.766c-2.385-3.316-5.7-7.22-10.29-8.343C130.327.297,128.278.61,125.984,0h-1.25c-8.964.976-15.985,4.62-22.528,8.343-3.343,1.9-6.827,3.436-9.874,5.563-9.014,6.293-16.552,13.56-25.03,20.997A115.9536,115.9536,0,0,0,55.9,46.585c-.776.904-2.69,3.963-4.035,3.615-.948-.247-1.798-4.61-2.363-5.703A24.7106,24.7106,0,0,0,38.099,33.512c-1.575-.688-3.924-1.67-6.12-1.25-3.39.64-5.33,5.583-3.616,9.454,1.06,2.394,3.493,2.556,4.73,4.172,2.846,3.72,2.967,11.572,2.78,18.215a34.9874,34.9874,0,0,1-.416,6.536c-.4,1.64-1.88,3.26-2.92,4.868C23.5,89.461,14.595,103.909,7.784,120.283c-1.496,3.6-2.71,7.73-3.892,11.543A74.3378,74.3378,0,0,0,.974,144.34C.407,148.777.381,154.044,0,159.22v1.393a26.39,26.39,0,0,0,1.39,7.926c.813,2.108,2.044,4.59,4.172,5.145,4.216,1.097,6.442-2.703,8.203-5.145,1.244-1.72,2.596-3.368,3.617-4.868,4.875-7.16,8.24-14.16,12.097-21.832,1.894-3.766,4.238-7.4,5.564-11.402,2.862-8.648,5.922-16.946,8.204-25.587,1.175-4.446,2.31-8.94,3.477-13.488,1.16-4.516,1.86-9.18,3.06-13.906.586-2.31,2.262-4.028,3.892-6.118,3.64-4.67,8.325-10.246,11.96-14.185,5.688-6.166,10.787-12.49,16.964-17.94a221.3916,221.3916,0,0,1,19.33-15.434,69.3621,69.3621,0,0,1,10.71-6.674c3.4-1.585,9.262-4.966,13.486-3.476,2.597.915,4.935,4.328,5.145,7.926.383,6.49-2.7,12.312-5.42,16.548a57.5394,57.5394,0,0,1-4.73,6.257,65.53,65.53,0,0,1-5.145,5.842c-4.044,3.716-7.66,7.016-11.403,10.567-1.72,1.633-3.755,3.675-5.7,5.284-1.917,1.584-4.58,3.823-6.676,4.45-.985.296-2.29.22-3.337.418-.84.16-1.657.586-2.504.835-1.796.53-3.65.757-5.424,1.252a63.3041,63.3041,0,0,0-9.734,3.754,49.1285,49.1285,0,0,0-8.344,5.006c-2.132,1.63-5.682,4.17-5.423,8.065.27,4.076,5.702,5.445,10.01,5.56a26.4281,26.4281,0,0,0,12.518-2.777c2.203-.975,4.373-1.93,6.395-2.922,4.257-2.085,8.156-4.987,12.098-6.673.27.58.625.675,1.113.974a28.6262,28.6262,0,0,1,8.9,8.624c-19.798,9.445-38.727,20.796-54.51,35.458-11.528,10.71-21.744,23.193-27.95,39.63-1.945,5.15-3.817,12.805-2.086,19.33.516,1.95,1.346,2.937,2.085,4.867,2.13,2.272,3.94,3.975,6.952,5.144,6.388,2.48,15.525,1.344,21.832-.694a108.1418,108.1418,0,0,0,17.8-7.645,131.6471,131.6471,0,0,0,29.34-21.557c8.565-8.248,16.922-17.605,22.945-27.95a64.8239,64.8239,0,0,0,7.51-17.938c1.61-7.097.528-15.815-1.67-22.11,9.426-3.822,20.8-8.162,30.175-10.708a4.3863,4.3863,0,0,1-.556,3.477c-1.463,3.11-2.98,5.46-4.31,8.76-1.39,3.446-3.646,9.637-1.53,14.18a10.2369,10.2369,0,0,0,4.17,4.45,15.7719,15.7719,0,0,0,2.92.836c.96.303,1.852.783,2.782.974,5.68,1.16,10.74-2.31,14.324-4.727,1.76-1.188,3.7-2.574,5.84-4.034.79-.54,5.594-3.67,6.537-3.06.742.482.042,3.712.278,4.866a6.95,6.95,0,0,0,4.31,5.006c4.327,1.804,10.867-.782,14.186-2.362a141.3328,141.3328,0,0,0,21.414-12.516c1.292-.934,2.486-2.412,4.172-2.362.37,2.132-.853,5.652-.556,9.038.093,1.087.794,2.198.556,3.198-.29,1.22-4.285,3.046-5.98,4.032-2.335,1.36-4.557,2.532-6.26,3.756-4.07,2.92-8.116,5.586-12.097,8.063a113.9239,113.9239,0,0,0-11.542,8.48c-3.77,3.073-7.007,6.618-10.428,9.734a104.0913,104.0913,0,0,0-18.356,21.834c-1.267,2.023-2.11,4.36-3.338,6.673-3.217,6.046-6.164,16.46-2.225,24.475a32.7065,32.7065,0,0,0,5.285,7.093,21.9434,21.9434,0,0,0,3.475,2.64c3.09,2.207,5.66,3.186,9.874,4.313a86.3669,86.3669,0,0,0,20.997,2.92h1.252c7.405-1.03,13.475-2.63,19.05-5.424,5.645-2.828,11.04-4.89,15.85-8.62,2.388-1.85,4.91-3.265,7.23-5.006,9.3-6.97,16.278-16.14,22.113-26.84,1.45-2.663,2.847-5.466,4.034-8.204,6.096-14.084,11.87-29.654,10.427-50.2-.12-1.696-.338-3.83-.28-5.838.054-1.786.14-4.245.7-5.424.687-1.462,4.5-2.473,6.393-3.2,5.16-1.973,9.228-3.353,14.188-5.283,1.842-.717,5.816-2.77,7.092-2.362.8.255,1.1,1.547,1.528,2.64,1.3421,3.447,3.19,5.35,4.5881,8.206-1.6831,2.146-4.586,2.524-6.953,3.615a62.6082,62.6082,0,0,0-13.35,7.926c-3.0221,2.476-8,6.996-4.31,11.403,1.084,1.293,4.584,3.362,5.84,3.476,7.933.71,14.058-2.272,20.304-5.703,5.65-3.104,11.71-6.98,13.627-12.792.318-.973.203-3.244.557-4.17.516-1.353,3.17-2.174,4.866-2.92a87.6833,87.6833,0,0,0,10.565-5.146c.942-.554,4.14-3.228,5.148-2.225.605.6-.383,3.327-.833,4.727-1.375,4.26-4.14,10.26-2.09,15.02a7.3591,7.3591,0,0,0,6.54,4.032c5.68.15,9.77-2.675,13.347-4.73,1.286-.74,2.593-1.47,3.895-2.227,1.217-.702,2.39-2.17,4.03-1.945.72,1.21.4,2.55.56,3.614.522,3.53,2.05,6.59,4.45,8.343,3.576,2.618,8.92,2,13.905.696a44.7329,44.7329,0,0,0,16.825-8.62c1.107-.89,3.752-3.905,5.143-3.475.774.238.894,2.192,1.393,3.336.4071.935,1.145,2.02,1.67,3.2,1.7749,4.01,4.5169,6.64,10.01,4.866,3.81-1.227,6.684-4.377,10.85-5.004,1.37.54,1.752,2.64,2.78,3.755a12.7953,12.7953,0,0,0,6.12,3.476c10.11,2.462,20.527-.82,29.34-2.92,8.492-2.026,17.637-5.382,27.95-6.118,10.91-.783,21.6631.8,33.096.14a40.31,40.31,0,0,0,19.467-6.4c1.98-1.196,4.09-2.12,4.867-3.753.485-1.02,1.02-3.506.56-4.728-1.075-2.812-5.938-2.21-9.043-1.114ZM443.727,68.002a86.3907,86.3907,0,0,1,12.796-21.555,47.9176,47.9176,0,0,1,6.672-7.092c.096-.074.6-.55.837-.14.84.735-.145,1.737-.417,2.365a107.8317,107.8317,0,0,1-17.66,28.09c-1.046,1.216-1.962,2.898-3.615,3.337-.384-1.743.74-3.442,1.388-5.006ZM24.747,120.008a80.27,80.27,0,0,1-4.17,12.932c-1.395,3.468-3.09,6.724-4.59,10.15-.45,1.026-.71,2.5-1.947,2.92-.91-1.114.08-2.52.417-3.616.37-1.197.656-2.55.974-3.754,1.257-4.752,3.563-9.178,5.424-13.767a29.6658,29.6658,0,0,1,3.615-6.674h.14c.932.29.22,1.406.137,1.81Zm93.03.14c-2.76,9.88-8.2,17.21-13.906,24.334-11.183,13.956-25.438,25.033-42.274,34.07a70.927,70.927,0,0,1-6.535,3.06c-5.52,2.267-16.838,4.397-17.522-3.616-.198-2.32,1.147-5.31,2.085-7.647,2.746-6.84,7.055-12.478,11.125-17.662,17.025-21.684,38.82-38.275,66.47-49.088.238.03.36-.236.417,0a29.8937,29.8937,0,0,1,.14,16.55Zm153.522,7.924c-.78,4.815-1.947,8.772-3.06,13.074-.36,1.387-1.032,2.56-1.393,3.893-.38,1.41-.227,2.507-.696,4.17-.49,1.732-1.26,3.56-1.947,5.285a128.9942,128.9942,0,0,1-7.925,16.55,57.1978,57.1978,0,0,1-11.68,14.46c-2.26,2.01-4.983,3.7-7.37,5.703a44.8043,44.8043,0,0,1-13.632,7.507c-1.95.74-3.728,1.778-5.56,2.503-.56.22-1.306.175-1.947.418-.552.208-.903.71-1.39.833-1.61.405-3.623.32-5.563.696-9.208,1.793-22.143.78-27.253-4.032a12.6392,12.6392,0,0,1-3.616-6.397c-.793-5.257,2.144-12.02,3.896-15.297a88.8333,88.8333,0,0,1,7.786-11.402c5.55-7.222,12.38-13.355,19.19-19.05,3.478-2.91,6.735-6.197,10.43-8.763,7.572-5.244,15.143-10.002,23.5-14.736,2.018-1.143,4.23-2.162,6.26-3.338a63.5624,63.5624,0,0,1,5.977-3.477c2.356-1.024,4.823-1.803,7.09-2.92,2.08-1.025,3.954-2.92,6.26-3.6169.065-.018.134-.116.276-.14,1.736-.28,1.64.77,2.086,3.4769a53.6885,53.6885,0,0,1,.282,14.6Zm148.513-33.79c-5.538,4.754-10.732,10.706-17.522,13.77-.933.42-2.106.93-2.78.136-.417-1.456.684-2.698,1.392-3.893.66-1.127,1.206-2.465,1.947-3.476,2.93-4.007,8.17-7.97,12.79-10.707,1.56-.922,3.78-2.22,5.423-2.363,1.475-.13,2.443.54,2.642,1.39.55,2.352-2.653,4.078-3.892,5.144Zm39.908,10.43c-.856-.816.143-1.897.556-2.64a27.4639,27.4639,0,0,1,9.734-10.153c1.303-.784,4.146-2.477,5.422-2.503,3.29-.068.503,2.573-.277,3.477-3.294,3.805-7.625,6.825-11.82,10.014-1.07.812-2.23,1.887-3.618,1.806Zm-74.676-33.79c2.314.456,6.1-1.178,7.65-2.226,2.13-1.44,2.026-3.682,3.34-6.12,1.12-2.086,4.535-3.1,4.168-6.674a3.8339,3.8339,0,0,0-2.083-2.92,25.0407,25.0407,0,0,0-5.01-.277c-1.4071.254-3.073,1.342-4.5881,2.085a21.0636,21.0636,0,0,0-4.0329,2.504c-1.8761,1.528-5.642,4.338-5.8371,7.23-.2269,3.396,3.5151,5.828,6.395,6.397Z"/></svg>