<svg xmlns="http://www.w3.org/2000/svg" viewBox="0 0 177 61.0012"><defs><style>.a,.b{fill:#b6b6bf;}.b{opacity:0.4;isolation:isolate;}</style></defs><path class="a" d="M72.2457,26.4041A9.8586,9.8586,0,0,1,64.8,29.4632c-5.63,0-10.2793-3.3869-10.2793-10.27S59.2059,8.9235,64.8,8.9235a9.1531,9.1531,0,0,1,6.9739,2.877l-3.0148,3.2048a5.8408,5.8408,0,0,0-3.8865-1.53,5.4359,5.4359,0,0,0-5.5574,5.754A5.2771,5.2771,0,0,0,64.8,24.9109a5.9269,5.9269,0,0,0,4.25-1.6024Z"/><path class="a" d="M79.1469,4.4441v7.6842a7.1162,7.1162,0,0,1,6.03-2.9135c5.4847,0,7.9183,3.7511,7.9183,9.4323V29.1354H88.3V18.6835c0-3.5325-1.8524-5.0257-4.395-5.0257-2.8332,0-4.7946,2.4036-4.7946,5.317V29.1719H74.316V4.4441Z"/><path class="a" d="M101.74,20.8685c.327,2.4036,2.397,4.1153,5.775,4.1153a7.9124,7.9124,0,0,0,5.194-1.8209l3.051,3.0227a11.8953,11.8953,0,0,1-8.318,3.1319c-6.683,0-10.6422-4.1152-10.6422-10.3427,0-5.9,3.9952-10.1606,10.2792-10.1606,6.466,0,10.534,4.006,9.771,12.0179H101.74Zm10.497-3.9695c-.327-2.5129-2.288-3.7875-5.013-3.7875a5.2179,5.2179,0,0,0-5.412,3.7875Z"/><path class="a" d="M125.567,9.47l.363,2.2579A5.695,5.695,0,0,1,131.379,8.96a7.3362,7.3362,0,0,1,4.976,1.8574l-2.143,4.188a4.7444,4.7444,0,0,0-3.451-1.2746c-2.506,0-4.831,1.3474-4.831,4.9164l.146,10.8161h-4.795L121.136,9.47Z"/><path class="a" d="M143.256,9.47l.364,2.2579A5.6935,5.6935,0,0,1,149.068,8.96a7.3362,7.3362,0,0,1,4.976,1.8574l-2.143,4.188a4.7436,4.7436,0,0,0-3.45-1.2746c-2.507,0-4.831,1.3474-4.831,4.9164V29.4631h-4.795V9.47Z"/><path class="a" d="M162.725,29.4632h5.267L177,8.8871h-5.303l-3.996,10.3063-6.32-10.3063h-5.557l9.262,15.55Z"/><path class="a" d="M72.2457,53.2441A9.8587,9.8587,0,0,1,64.8,56.3033c-5.63,0-10.2793-3.3869-10.2793-10.27s4.6856-10.27,10.2793-10.27a9.1528,9.1528,0,0,1,6.9739,2.877l-3.0148,3.2047a5.8406,5.8406,0,0,0-3.8865-1.5295,5.4359,5.4359,0,0,0-5.5574,5.754A5.2772,5.2772,0,0,0,64.8,51.751a5.9269,5.9269,0,0,0,4.25-1.6024Z"/><path class="a" d="M112.491,36.31h4.577V55.7205h-4.504l-.218-2.8406c-1.09,2.2944-4.105,3.3869-6.284,3.4233-5.739.0364-9.9524-3.4961-9.9524-10.3063,0-6.7009,4.4314-10.197,10.0974-10.1606a7.1517,7.1517,0,0,1,6.175,3.132Zm-11.623,9.6871a5.536,5.536,0,0,0,5.739,5.9c7.519,0,7.519-11.7629,0-11.7629A5.5256,5.5256,0,0,0,100.868,45.9969Z"/><path class="a" d="M133.994,55.7206V45.3415c0-2.5493-1.344-4.88-3.959-4.88-2.579,0-4.105,2.3307-4.105,4.88V55.7206h-4.794V36.2734h4.431l.363,2.3672a5.5877,5.5877,0,0,1,5.086-2.6585,5.8341,5.8341,0,0,1,5.739,3.6053,6.973,6.973,0,0,1,6.465-3.5325c5.485,0,8.209,3.3869,8.209,9.2137v10.452h-4.795V45.2686c0-2.5492-1.053-4.7343-3.632-4.7343s-4.213,2.2579-4.213,4.8072V55.7206Z"/><path class="a" d="M155.897,61.0012V36.31h4.467l.327,2.6585a7.689,7.689,0,0,1,6.284-3.0955c5.957,0,9.916,4.443,9.916,10.1606,0,5.6812-3.56,10.1606-9.771,10.1606-2.034,0-5.049-.6191-6.429-2.7678v7.575Zm16.199-14.9678a5.4845,5.4845,0,1,0-10.969,0,5.4845,5.4845,0,1,0,10.969,0Z"/><path class="a" d="M79.1469,32.6316V39.26a7.116,7.116,0,0,1,6.03-2.9135c5.4847,0,7.9183,3.7511,7.9183,9.4323V56.3032H88.3V45.8149c0-3.5326-1.8524-5.0257-4.395-5.0257-2.8332,0-4.7946,2.4036-4.7946,5.317v10.197H74.316V32.6316Z"/><path class="a" d="M38.175,18.7563l-9.0443.1457-.109-5.7905a8.516,8.516,0,0,1,8.3905-8.7039l9.0444-.1456.1089,5.79A8.5616,8.5616,0,0,1,38.175,18.7563Z"/><path class="a" d="M46.4929,4.2256,29.1307,18.902l9.2623-.1457a8.3686,8.3686,0,0,0,8.2089-8.5218Z"/><path class="a" d="M31.0194,22.18a6.3054,6.3054,0,0,0-3.1964.874l-9.0443,5.2078a6.6909,6.6909,0,0,0-2.361,2.3671l14.6017,8.449Z"/><path class="a" d="M31.0194,39.041,45.6211,47.49a6.5182,6.5182,0,0,0,.8717-3.2048V33.8332a6.0629,6.0629,0,0,0-.8717-3.2048Z"/><path class="a" d="M16.4177,47.49a6.4089,6.4089,0,0,0,2.361,2.3672l9.0443,5.2442a6.3054,6.3054,0,0,0,3.1964.874V39.0774Z"/><path class="a" d="M45.6211,30.592a6.4071,6.4071,0,0,0-2.361-2.3671l-9.0443-5.2078a6.3054,6.3054,0,0,0-3.1964-.874V39.041Z"/><path class="a" d="M31.0194,55.9389a6.3055,6.3055,0,0,0,3.1964-.8741L43.26,49.8206a6.6909,6.6909,0,0,0,2.361-2.3671l-14.6017-8.449Z"/><path class="a" d="M16.4178,30.592a6.5178,6.5178,0,0,0-.8718,3.2048v10.452a6.0626,6.0626,0,0,0,.8718,3.2047l14.6016-8.4489Z"/><path class="a" d="M39.9912,44.2487a3.9852,3.9852,0,0,1-1.4529,1.4568L32.981,48.91a3.8982,3.8982,0,0,1-1.9615.5463V39.0774Z"/><path class="a" d="M31.02,28.662a3.8006,3.8006,0,0,1,1.9615.5463l5.5573,3.2047A3.9857,3.9857,0,0,1,39.9912,33.87L31.02,39.0775Z"/><path class="a" d="M22.0479,44.2489a4.0974,4.0974,0,0,1-.5448-1.9666v-6.446a3.7314,3.7314,0,0,1,.5448-1.9665L31.02,39.0775Z"/><path class="a" d="M23.5008,32.413l5.5573-3.2047A3.8979,3.8979,0,0,1,31.02,28.662V39.0411L22.0479,33.87A3.7293,3.7293,0,0,1,23.5008,32.413Z"/><path class="a" d="M31.02,49.42a3.8,3.8,0,0,1-1.9614-.5463l-5.5573-3.2048a3.9862,3.9862,0,0,1-1.4529-1.4567L31.02,39.0046Z"/><path class="a" d="M39.9912,33.87a4.0967,4.0967,0,0,1,.5448,1.9665v6.446a3.732,3.732,0,0,1-.5448,1.9666L31.02,39.0411Z"/><path class="a" d="M11.9865,19.6664l12.386-.1821-.109-7.9026A11.7121,11.7121,0,0,0,12.386.0008L0,.1828.109,8.0855A11.7114,11.7114,0,0,0,11.9865,19.6664Z"/><path class="a" d="M0,.1831,24.4088,19.521l-12.6766.1821A11.51,11.51,0,0,1,.109,8.3771Z"/><path class="a" d="M15.5823,22.18a6.3054,6.3054,0,0,0-3.1964.874L3.3416,28.2614a6.6909,6.6909,0,0,0-2.361,2.3671l14.6017,8.449Z"/><path class="a" d="M.9806,47.49a6.4074,6.4074,0,0,0,2.361,2.3672l4.504,2.6221,4.504,2.6221a6.3053,6.3053,0,0,0,3.1963.874V39.0774Z"/><path class="a" d="M15.5823,39.041,30.1476,47.49a6.5173,6.5173,0,0,0,.8718-3.2048V33.8332a6.063,6.063,0,0,0-.8718-3.2048Z"/><path class="a" d="M30.1476,30.592a6.4076,6.4076,0,0,0-2.3609-2.3671l-9.008-5.2078a6.3054,6.3054,0,0,0-3.1964-.874V39.041Z"/><path class="a" d="M15.5823,55.9389a6.3055,6.3055,0,0,0,3.1964-.8741l4.504-2.6221,4.504-2.6221a6.6909,6.6909,0,0,0,2.361-2.3671L15.546,39.0045V55.9389Z"/><path class="a" d="M.9806,30.592a6.5188,6.5188,0,0,0-.8717,3.2048v10.452a6.0634,6.0634,0,0,0,.8717,3.2047l14.6017-8.4489Z"/><path class="a" d="M24.5541,44.2487a3.9852,3.9852,0,0,1-1.4529,1.4568L17.5438,48.91a3.8979,3.8979,0,0,1-1.9614.5463V39.0774Z"/><path class="a" d="M15.5824,28.6619a3.8013,3.8013,0,0,1,1.9614.5462l5.5574,3.2048A3.9862,3.9862,0,0,1,24.5541,33.87l-8.9717,5.2078Z"/><path class="a" d="M6.6106,44.2487a4.097,4.097,0,0,1-.5448-1.9665v-6.446A3.732,3.732,0,0,1,6.6106,33.87l8.9717,5.2078Z"/><path class="a" d="M8.0635,32.4129l5.5574-3.2048a3.8985,3.8985,0,0,1,1.9614-.5462V39.041L6.6106,33.87A3.73,3.73,0,0,1,8.0635,32.4129Z"/><path class="a" d="M15.5823,49.42a3.8008,3.8008,0,0,1-1.9614-.5462L8.0635,45.669a3.9862,3.9862,0,0,1-1.4529-1.4567l8.9717-5.2078Z"/><path class="a" d="M24.5541,33.87a4.0974,4.0974,0,0,1,.5448,1.9666v6.446a3.7316,3.7316,0,0,1-.5448,1.9665L15.5824,39.041Z"/><path class="b" d="M34.7243,45.56V32.5587a8.0033,8.0033,0,0,0-3.9954-6.9194l-3.7413-2.1487L23.21,25.6757l4.54,2.6221A6.4244,6.4244,0,0,1,30.9468,33.87V44.3216a6.5021,6.5021,0,0,1-3.1964,5.572l-4.504,2.5857,3.7776,2.185,3.7412-2.1486A8.1066,8.1066,0,0,0,34.7243,45.56Z"/></svg>