<svg xmlns="http://www.w3.org/2000/svg" viewBox="0 0 875.3605 104.7"><defs><style>.a{fill:#b6b6bf;}</style></defs><path class="a" d="M524.89,0a8.7676,8.7676,0,0,1,.76,3.88q-.075,45.48-.02,90.97c-.19,3.28.61,6.74-.75,9.85-.68-18.26-.1-36.57-.29-54.85C524.78,33.24,524.2,16.59,524.89,0Z"/><path class="a" d="M6.87,9.25c5.56.12,11.55-1.08,16.81,1.15,5.13,2.98,2.53,11.01-2.71,12.26-5.57,1.29-11.31.88-16.98.88C4.66,18.72,5.97,14.02,6.87,9.25Z"/><path class="a" d="M35.86,9.25c5.57.15,11.57-1.14,16.82,1.15,5.12,2.98,2.55,11.04-2.72,12.26-5.57,1.28-11.31.88-16.97.88C33.69,18.73,35,14.03,35.86,9.25Z"/><path class="a" d="M704,10.86q5.655-.015,11.33,0,.045,5.505,0,11.01c-3.78.03-7.55.04-11.33,0Q703.97,16.365,704,10.86Z"/><path class="a" d="M678.32,14.12q5.61.015,11.24.01c.14,5.2.01,10.4.12,15.59,3.11.1,6.24.09,9.37.16-.03,3.07-.03,6.14-.02,9.21-3.11.09-6.22.06-9.33.16-.17,7.21-.01,14.43-.09,21.64.07,2.56-.43,5.39,1.19,7.61,2.61,1.13,5.53.48,8.27.41-.05,3.25-.02,6.5-.14,9.75-5.03.19-10.26,1.24-15.17-.29-3.59-1.08-5.54-4.91-5.49-8.47-.06-10.21.08-20.43-.06-30.65-2.07-.06-4.14-.09-6.19-.14-.04-3.07-.04-6.14-.02-9.22,2.06-.06,4.14-.11,6.23-.19C678.3,24.51,678.21,19.31,678.32,14.12Z"/><path class="a" d="M62.47,21.85c4.56.1,9.14-.22,13.69.14,3.47.43,6.71,3.76,5.68,7.4-.5,4.07-4.72,6.4-8.5,6.48-4.68.1-9.37,0-14.05,0C60.52,31.24,61.34,26.5,62.47,21.85Z"/><path class="a" d="M102.51,21.82c7.61-.01,15.22-.06,22.83.02,5.78.24,12.22,2.52,15.01,7.96,2.03,4.81,1.34,10.9-2.26,14.81-1.99,2.23-4.78,3.48-7.4,4.8,3.3,2.17,6.72,5.17,6.86,9.44a15.569,15.569,0,0,1-6.82,15.4c-6.69,4.84-15.35,4.55-23.21,4.26-5.23-.33-10.77-2.98-12.72-8.14-1.85-3.9-1.08-8.24-.1-12.26C97.35,46.03,100.04,33.95,102.51,21.82Zm9.17,10.4c-.81,3.85-1.63,7.69-2.52,11.52,4.36.03,8.74.23,13.1-.03,3.44-.38,7.88-2.7,7.31-6.77.16-1.82-1.35-2.95-2.71-3.82C121.94,31.63,116.74,32.26,111.68,32.22Zm-4.79,22.06c-.9,4.51-2.06,8.98-2.76,13.53,4.69,0,9.38.2,14.07-.06,3.09-.57,6.52-2.16,7.52-5.41,1.46-2.89-.74-6.57-3.78-7.26C117.06,53.63,111.9,54.23,106.89,54.28Z"/><path class="a" d="M151.52,21.84c3.66.01,7.32-.01,10.98.04-3.03,13.74-5.96,27.49-8.97,41.23-.33,2.12-1.1,5.13,1.22,6.43a32.35,32.35,0,0,0,6.3.72c-.64,2.98-1.25,5.96-2.06,8.9-4.96.87-10.77.22-14.36-3.65-3.26-4.26-2.66-9.96-1.42-14.84C146.03,47.74,149,34.83,151.52,21.84Z"/><path class="a" d="M266.52,21.82c3.65-.03,7.32-.04,10.98.06-2.07,9.75-4.2,19.49-6.31,29.24,6.76-5.09,12.32-11.62,19.21-16.5,4.83-.24,9.67-.09,14.51.01-7.1,6.33-14.62,12.17-21.78,18.44,4.13,8.54,8.86,16.79,12.7,25.46-3.98.06-7.96.09-11.94-.04-2.97-6.29-6.14-12.48-8.99-18.83a35.8819,35.8819,0,0,0-6.45,5.32c-1.6,4.39-1.96,9.14-3.3,13.62-3.6-.04-7.21-.05-10.81.01C258.4,59.69,262.71,40.8,266.52,21.82Z"/><path class="a" d="M308.61,21.85c7.58-.06,15.15-.08,22.73-.01,6.26.22,13.46,2.95,15.68,9.36.88,3.64.87,7.81-1.19,11.08-1.88,3.51-5.51,5.46-8.98,7.08,2.21,1.76,4.71,3.47,5.94,6.11a15.6849,15.6849,0,0,1-6.03,18.84c-5.07,3.5-11.4,4.47-17.43,4.29-5,.13-10.47-.01-14.61-3.2-4.53-3.17-5.6-9.32-4.49-14.44C302.95,47.91,305.94,34.91,308.61,21.85Zm9.18,10.4c-.82,3.83-1.71,7.64-2.5,11.48,4.32.06,8.65.22,12.97-.01,2.93-.5,6.65-1.65,7.36-4.98.99-2.28-.86-4.57-2.76-5.63C327.98,31.61,322.8,32.26,317.79,32.25ZM313,54.3c-.96,4.5-2.01,8.98-2.86,13.51,4.4.03,8.81.12,13.21.01,3.72-.22,7.74-2.38,8.8-6.19.77-2.88-1.42-5.83-4.15-6.6C323.12,53.66,317.99,54.2,313,54.3Z"/><path class="a" d="M562.59,36.13c7.13-9.27,22.76-9.81,30.62-1.23a23.6263,23.6263,0,0,1,3.93,6.63c-3.2,1.39-6.44,2.71-9.59,4.21-1.34-2.56-2.54-5.67-5.47-6.78-3.72-1.07-8.34-.28-10.48,3.25-2.97,4.98-2.64,11.08-2.33,16.65.17,4.51,2.68,9.8,7.66,10.4,5.21,1.2,9.36-3.01,11.76-7.11,2.98,1.55,5.97,3.09,8.88,4.78-2.42,5.68-7.3,10.39-13.46,11.63-6.44.92-13.72.9-18.99-3.47-6.36-5-7.44-13.71-7.76-21.26C557.71,47.68,558.65,41.12,562.59,36.13Z"/><path class="a" d="M607.52,33.02c7.44-6.09,19.64-5.7,26.48,1.15,5.26,5.79,6.32,14.05,6.19,21.57-9.7.34-19.4.04-29.11.18-.14,5.09,1.34,11.58,6.88,13.25,5.16,2.15,10.45-1.42,13.24-5.64,2.88,1.65,5.72,3.41,8.53,5.2a20.1878,20.1878,0,0,1-18.4,10.24c-4.97.32-10.3-.65-14.03-4.19-6.13-5.09-7.5-13.5-7.69-21.02C599.88,46.29,601.46,38.04,607.52,33.02Zm5.89,7.92a15.1088,15.1088,0,0,0-2.31,6.81c5.88.09,11.76.08,17.65.01-.3-2.47-.26-5.27-2.08-7.2C623.57,36.38,616.24,36.54,613.41,40.94Z"/><path class="a" d="M657.14,36.71c3.04-4.36,7.48-8.31,13.16-8.02.12,3.97.1,7.94.05,11.91-5.19.67-10.88,3.35-12.62,8.63-.28,9.62.03,19.27-.14,28.9-3.77.06-7.53.05-11.3.02q-.075-24.15,0-48.32c3.57-.04,7.14-.03,10.72.01C657.02,32.13,657.02,34.42,657.14,36.71Z"/><path class="a" d="M726.02,36.57c4.92-6.91,14.55-9.27,22.45-6.82A17.4445,17.4445,0,0,1,760.7,41.51c-3.17,1.43-6.32,2.9-9.54,4.2-1.25-2.53-2.49-5.33-5.12-6.7-3.02-.73-6.75-.89-9.08,1.52-3.85,3.24-3.87,8.67-4.33,13.27.02,3.89.37,7.98,2.2,11.49,1.82,3.66,6.62,4.95,10.31,3.6,3.48-.75,5.44-4,7.22-6.76,3.01,1.52,6.03,3.06,8.95,4.75-2.4,5.62-7.1,10.36-13.23,11.61-6.62,1.04-14.37,1.02-19.6-3.78-4.71-3.89-6.38-10.1-7.11-15.91C720.82,51.21,721.42,42.94,726.02,36.57Z"/><path class="a" d="M778.69,29.41c7.11-1.74,15.49-.01,20.4,5.7,4.34,5.18,5.71,12.14,5.56,18.74.16,7.04-1.3,14.71-6.49,19.84a18.5412,18.5412,0,0,1-14.87,5.3,17.8934,17.8934,0,0,1-16.55-9.54c-4.21-8.24-4.44-18.16-1.77-26.91C766.87,36.17,772.06,30.74,778.69,29.41Zm2.09,9.93c-4.22,2.07-5.55,7.15-5.65,11.49-.16,5.21-.54,11.03,2.73,15.46,2.18,3.17,6.65,3.45,10.01,2.21a9.9327,9.9327,0,0,0,4.22-5.85,30.7011,30.7011,0,0,0-.61-18.91C789.99,39.52,784.78,37.69,780.78,39.34Z"/><path class="a" d="M821.31,35c3.69-3.66,8.65-6.56,14.01-6.2a12.7868,12.7868,0,0,1,11.56,6.86c4.64-4.38,10.83-7.61,17.38-6.8,5.8.23,11.08,4.99,11.07,10.94q.075,19.185,0,38.35c-3.77.03-7.54.04-11.3-.02-.1-10.76,0-21.53-.04-32.3.03-2.96-.89-6.75-4.29-7.38-4.25-.75-8.11,2.16-11.27,4.66-.19,11.68,0,23.36-.1,35.04-3.69.03-7.36.03-11.04,0-.11-11.42.08-22.84-.08-34.26-.34-2.16-1.27-5.32-3.97-5.23-4.2-.74-8.01,1.62-10.93,4.37-.01,11.71.01,23.42-.01,35.13-3.91.01-7.81.05-11.71-.06-.01-16.08.02-32.15-.01-48.23,3.56-.09,7.14-.08,10.72-.05C821.29,31.55,821.3,33.27,821.31,35Z"/><path class="a" d="M704,29.83c3.78-.04,7.55-.04,11.33,0q.06,24.165,0,48.32c-3.77.03-7.54.04-11.3-.02C703.95,62.03,703.99,45.93,704,29.83Z"/><path class="a" d="M0,44.81c.94-4.8,1.9-9.59,3.18-14.31,4.38.13,8.77-.18,13.14.2,3.16.09,6.73,2.68,6.08,6.16a6.5272,6.5272,0,0,1-4.41,6.76C12.24,45.74,5.98,44.58,0,44.81Z"/><path class="a" d="M29,44.81c1.01-4.78,1.9-9.59,3.2-14.3,4.37.11,8.76-.19,13.12.2,3.15.1,6.8,2.63,6.08,6.14a6.5861,6.5861,0,0,1-4.39,6.79C41.24,45.71,34.99,44.59,29,44.81Z"/><path class="a" d="M361.47,36.98c9.31-4.97,22.79-3.32,28.92,5.85,3.56,5.21,3.34,11.78,2.55,17.77-11.02.61-22.07.02-33.1.3a10.0654,10.0654,0,0,0,10.43,8.98c3.75.11,6.63-2.5,9.36-4.68,3.84-.21,7.7-.09,11.55.08a20.8963,20.8963,0,0,1-15.94,13.61c-6.51,1.26-13.79.4-19.12-3.8-5.07-4.08-7.34-10.88-6.9-17.25C348.78,49.28,354.07,41.03,361.47,36.98Zm7.56,7.7a12.2872,12.2872,0,0,0-7.52,7.1c7.03.1,14.07.14,21.1-.02C381.55,45.71,374.52,42.5,369.03,44.68Z"/><path class="a" d="M167.87,48.07a21.821,21.821,0,0,1,18.44-13.46c6.09-.47,13.48-.55,17.88,4.42,2.8,2.9,3.21,7.37,2.35,11.15-1.62,9.44-5.12,18.68-4.25,28.4-3.58-.02-7.16.03-10.74-.09-.12-1.25-.22-2.51-.29-3.76-4.43,3.78-10.57,5.73-16.32,4.36-5.09-.79-10.01-4.46-11-9.71-1.3-5.01.82-10.95,5.52-13.4,6.97-4.17,15.3-4.24,23.01-6,1.89-.26,3.1-1.85,4.38-3.09-1.99-2.76-5.26-3.63-8.51-3.12-3.64-.18-6.13,2.72-9.04,4.33C175.49,48.31,171.67,48.17,167.87,48.07Zm8.75,14.11c-2.94,1.75-1.85,6.32,1.35,7.01,7.09,2.36,15.52-3.15,16.15-10.71C188.25,59.28,181.92,59.25,176.62,62.18Z"/><path class="a" d="M213.55,46.13a23.2186,23.2186,0,0,1,17.79-11.7c7.46-.83,16.21,1.07,20.76,7.57,2.2,2.76,2.81,6.31,3.16,9.72-3.84.19-7.68.13-11.52.13-1.52-4.29-5.72-7.56-10.4-7.05-9.23.25-14.85,12.42-9.85,19.9a9.7344,9.7344,0,0,0,12.13,3.33c2.31-.9,3.76-3.01,5.17-4.92,3.95.04,7.91-.01,11.86.06a20.19,20.19,0,0,1-13.87,15.19c-7.42,2-16.17,1.4-22.22-3.74C208.96,67.34,208.59,54.98,213.55,46.13Z"/><path class="a" d="M410.58,37.07c4.92-2.93,10.87-2.78,16.37-2.22-.67,3.29-1.46,6.56-1.94,9.89-3.56-.06-7.82-.62-10.52,2.25-2.15,1.83-3.2,4.52-3.86,7.19-1.94,8.11-3.36,16.33-5.44,24.41-3.53-.02-7.07.03-10.59-.15,1.63-8.13,3.48-16.21,5.13-24.33C401.16,47.44,404.27,40.4,410.58,37.07Z"/><path class="a" d="M437.91,36.4c7.7-3.05,16.17-1.49,24.23-1.86,1.29,9.33,2.42,18.69,3.86,28,5.8-9.13,10.73-18.78,16.38-28,3.82-.01,7.65-.05,11.48.05-11.68,20.48-23.87,40.67-35.8,61-3.78-.03-7.55.01-11.31-.07,3.02-6.24,6.88-12.03,10.23-18.09.9-1.36.39-3.03.3-4.52q-2.655-15.975-5.18-31.98a29.5686,29.5686,0,0,0-1.25-4.81c-.71,2.87-1.36,5.74-1.8,8.66-4.94-.65-10.83,1.28-12.16,6.63-2.18,8.98-3.98,18.06-5.94,27.09-3.61.1-7.21.08-10.82.04,1.84-8.76,3.75-17.51,5.65-26.26C427.21,45.56,431.3,39,437.91,36.4Z"/><path class="a" d="M58.39,43.86c5.47.26,11.27-.9,16.46,1.34,4.98,2.58,3.01,10.75-2.07,12.15-5.7,1.56-11.77.55-17.61.79C56.31,53.39,57.11,48.57,58.39,43.86Z"/><path class="a" d="M27.68,52.95c4.53-.17,9.07-.26,13.6-.07,3.14.09,6.41,2.58,6.11,5.97.56,4.63-4.12,7.58-8.19,7.95-4.76.23-9.52.06-14.28.05C25.72,62.19,26.97,57.62,27.68,52.95Z"/></svg>