<svg xmlns="http://www.w3.org/2000/svg" viewBox="0 0 1348.17 400.2565"><defs><style>.a{fill:#b6b6bf;}</style></defs><path class="a" d="M1161.76,0q23.235.015,46.48,0,.03,79.995.01,160c17.29,1.23,35.15-4.35,47.78-16.41a61.1042,61.1042,0,0,0,19.75-45.34q23.37,0,46.76.01a108.6559,108.6559,0,0,1-55.17,94.46q40.425,55.005,80.8,110.03h-55.92q-32.565-44.43-65.18-88.8c-4.16-5.99-11.85-8.11-18.82-7.46q-.015,48.135,0,96.26h-46.5Q1161.75,151.37,1161.76,0Z"/><path class="a" d="M.01,62c18.18.06,36.36-.11,54.54.08-.12,46.91-.01,93.81-.05,140.72a50.9525,50.9525,0,0,0,20.09,40.73,50.1,50.1,0,0,0,39.77,9.38,50.76,50.76,0,0,0,38.97-35.17,56.4908,56.4908,0,0,0,2.18-17.97q-.03-68.88-.01-137.77c18.17-.01,36.34.03,54.51-.02,12.21,41.05,29.6,80.75,53.11,116.62,7.04-22.67,18.65-44.48,36.57-60.4a100.6029,100.6029,0,0,1,59.63-25.52,107.9914,107.9914,0,0,1,64.36,14.59c27.35,16.06,47.07,44.61,51.83,76.03a108.5571,108.5571,0,0,1-12.5,70.17c-15.22,27.36-42.78,47.51-73.57,53.38-24.09,4.49-49.38,1.1-71.9-8.39-7.68-3.15-14.89-7.3-22.04-11.48-7.82,37.79-15.97,75.52-24.01,113.27q-27.9,0-55.81-.01,16.635-78.27,33.25-156.53c-15.49-19.35-27.99-40.91-38.87-63.12-.43,12.78.79,25.65-1.17,38.34a105.6643,105.6643,0,0,1-34.73,63.73,104.4562,104.4562,0,0,1-126.04,9.32C19.2,273.45.47,240.12,0,205.74Q.015,133.86.01,62Zm349.15,88.6c-12.21,4.95-21.31,15.46-27.11,27.03-8.29,16.21-10.15,34.57-14.25,52.07,17.84,14.37,39.98,25.1,63.35,24.22a53.8277,53.8277,0,0,0,41.4-22.86,53.1042,53.1042,0,0,0,8.81-40.41,53.59,53.59,0,0,0-72.2-40.05Z"/><path class="a" d="M855.78,93.51a108.224,108.224,0,1,1-80.33,58.31C790.8,120.97,821.63,98.44,855.78,93.51Zm14.83,43.57a63.6471,63.6471,0,1,0,41.83,14.44A63.3016,63.3016,0,0,0,870.61,137.08Z"/><path class="a" d="M478.67,98.52c15.41-.04,30.83.01,46.24-.03q17.865,65.19,35.62,130.41c.92,3.32,1.7,6.68,2.86,9.94,11.67-46.76,23.17-93.57,34.81-140.33,14.81-.02,29.61.01,44.42-.02,11.65,46.83,23.07,93.73,34.9,140.51q19.155-70.26,38.38-140.51c15.41.05,30.82-.04,46.23.04Q732.55,200.635,702.86,302.7c-15.44.11-30.87.03-46.31.04q-17.94-70.695-36.09-141.33c-12.34,47.05-24.09,94.26-36.29,141.34H538.03Q508.255,200.66,478.67,98.52Z"/><path class="a" d="M1009.5,98.51c15.52.03,31.03-.09,46.55.06-.14,10.33.02,20.66-.08,30.99,10.91-15.27,27.69-26.44,46.2-29.88,9.32-1.93,18.88-.94,28.32-1.17q.015,22.995,0,45.99c-11.15.39-22.57-1.23-33.44,1.94a55.9185,55.9185,0,0,0-33.02,25.1,56.8451,56.8451,0,0,0-8.04,29.27q.015,50.97.01,101.93-23.25.015-46.5,0Q1009.515,200.635,1009.5,98.51Z"/></svg>