<svg xmlns="http://www.w3.org/2000/svg" viewBox="0 0 794.6726 112.5415"><defs><style>.a{fill:#b6b6bf;}</style></defs><path class="a" d="M52.5826.48c10.81-2.88,22.37,7.68,21.11,18.69-.68,9.72-10.6,17.55-20.23,15.59-9.71-1.35-16.76-11.93-14.06-21.41A19.154,19.154,0,0,1,52.5826.48Z"/><path class="a" d="M226.6226,4.24c4.52-.06,9.04-.09,13.55.01-.19,24.65-.03,49.3-.08,73.95.23,3.39.35,7.64,3.6,9.64,2.23,1.46,4.96.07,7.36-.16a116.04,116.04,0,0,0,4.1,11.9c-6.43,1.92-13.77,3.13-19.88-.43-6.1-3.72-8.01-11.34-8.53-18.01C226.5826,55.51,226.8026,29.87,226.6226,4.24Z"/><path class="a" d="M654.3326,4.26c4.59-.04,9.18-.07,13.77,0q-.3,46.905-.01,93.8a94.4405,94.4405,0,0,1-29.86,3.48c-7.19-.73-14.65-3.23-19.49-8.85-7-7.25-8.64-17.88-8.4-27.56-.21-10.48,2.71-21.88,11.34-28.58,9.26-6.99,22.12-7.8,32.92-4.27C654.2026,22.94,654.5226,13.6,654.3326,4.26Zm-18.88,39.88c-6,1.45-10.01,7.15-10.87,13.05a67.6956,67.6956,0,0,0,.01,17.93c.84,5.27,3.97,10.63,9.3,12.34,6.65,2.11,13.93,1.48,20.63-.14-.22-12.74-.15-25.49-.05-38.24-.16-1.31.52-3.45-1.15-4.01C647.7126,42.71,641.3126,42.87,635.4526,44.14Z"/><path class="a" d="M146.8726,10.99c10.79-.03,21.58-.05,32.36,0,7.51.24,15.37,1.25,21.84,5.36,11.03,6.81,13.44,24.51,3.97,33.59a24.3446,24.3446,0,0,1-5.35,3.68c2.71,1.98,5.81,3.46,8.09,5.98,5.69,5.76,6.93,14.74,4.91,22.33-1.51,7.25-7.41,12.91-14.17,15.49a47.1207,47.1207,0,0,1-16.29,2.81c-11.81.04-23.62.01-35.42.01C146.9326,70.49,146.8026,40.74,146.8726,10.99Zm14.12,13.23c.07,8.09.03,16.18.03,24.27,7.4-.07,14.82.22,22.22-.16,4.98-.53,10.77-2.51,12.77-7.57,2.53-5.71-.56-12.98-6.58-14.86C180.2726,22.88,170.4526,24.62,160.9926,24.22Zm.05,36.59c0,8.75-.05,17.5.03,26.25,7.73-.09,15.46.13,23.19-.12,4.11-.42,8.58-1.1,11.71-4.06,4.91-4.44,4.97-13.05.13-17.57-3.63-3.57-8.98-4.31-13.84-4.48C175.1826,60.77,168.1126,60.85,161.0426,60.81Z"/><path class="a" d="M389.9226,10.86c5.31.34,10.69-.3,15.96.4,7.72,12.12,14.95,24.57,22.39,36.87,1.12,1.38,1.25,4.64,3.65,3.98,7.65-13.95,16.09-27.48,24.38-41.06,5.34-.15,10.68.06,16.02-.17-11.13,17.68-22.03,35.51-33.14,53.2-1.09,1.44-.97,3.29-.98,5,.08,10.37-.05,20.75.12,31.12q-7.23.135-14.45-.01c.38-10.69.02-21.39.26-32.08.29-2.17-1.27-3.86-2.26-5.62C411.2626,45.26,400.4426,28.15,389.9226,10.86Z"/><path class="a" d="M342.2826,39.16c5.28-6.46,13.93-8.71,21.95-8.98,8.84-.02,18.61,2.43,24.07,9.94,6.96,8.74,6.7,20.54,6.67,31.13-15.54.19-31.1-.26-46.63.23.26,5.04,1.99,10.31,6.21,13.41,5.57,4.24,13.01,4.06,19.66,3.62a65.046,65.046,0,0,0,15.49-3.13c1.45,4.09,2.83,8.22,3.92,12.43-12.56,3.56-26.19,5.63-38.97,1.99a26.31,26.31,0,0,1-16.9-15.07c-3.19-7.4-2.99-15.66-2.83-23.55C335.1426,53.35,336.9726,45.18,342.2826,39.16Zm13.24,6.29c-5.26,3.09-6.98,9.54-7.17,15.26,10.96.18,21.93.15,32.9-.01.34-6.55-2.58-13.98-9.17-16.36C366.7126,42.77,360.5226,42.7,355.5226,45.45Z"/><path class="a" d="M492.5926,30.33c9.58-.66,20.47,1.88,26.48,9.96,5.87,7.18,7.47,16.83,7.27,25.86.2,9.43-1.74,19.61-8.32,26.76-5.61,6.42-14.52,8.83-22.78,8.75-8.22,0-17.03-2.51-22.53-8.95-6.65-7.42-8.18-17.94-7.93-27.55-.13-9.91,2.04-20.87,9.73-27.77C479.3726,32.78,486.0726,30.92,492.5926,30.33Zm-.03,13.08c-4.07.3-8.19,2.08-10.54,5.53-3.67,5.31-3.49,12.07-3.52,18.24.04,5.71.35,11.98,4.12,16.6,5.08,5.71,14.07,6.07,20.82,3.52,6.32-2.49,8.63-9.88,8.91-16.11.17-7.56.86-15.95-3.72-22.48C505.1726,43.55,498.2326,42.83,492.5626,43.41Z"/><path class="a" d="M539.7426,34c8.52-2.85,17.58-3.3,26.48-3.81,7.86-.09,16.36,1.19,22.53,6.48,6.1,5.31,8.5,13.64,8.85,21.47.06,14.04-.01,28.08.03,42.11-4.62,0-9.24.06-13.85-.06.34-14.65.21-29.32.11-43.97.12-5.61-3.73-11.09-9.33-12.24-6.99-1.37-14.21-.77-21.17.45.41,18.6.05,37.21.19,55.82-4.62,0-9.24.05-13.85-.06Q540.1976,67.1,539.7426,34Z"/><path class="a" d="M690.3026,38.18c5.29-5.79,13.39-7.62,20.92-8,8.88-.09,18.65,2.39,24.22,9.82,6.75,8.89,7.06,20.6,6.72,31.28-15.49.02-30.99-.13-46.48.09-.02,5.69,2.41,11.97,7.72,14.66,5.7,3.28,12.53,2.85,18.85,2.4a59.5,59.5,0,0,0,14.32-3.07c1.7,3.97,2.88,8.13,4.39,12.17-11.77,3.89-24.69,5.51-36.89,2.87a26.523,26.523,0,0,1-19.22-15.89c-3.2-7.68-3.23-16.18-2.9-24.36C682.5926,52.28,684.6526,44.02,690.3026,38.18Zm14.26,6.3c-6.46,2.51-8.78,9.75-9.14,16.1,10.97.51,21.98.2,32.97.13-.37-4.44-.6-9.41-3.93-12.78C719.5326,42.49,711.1026,42.38,704.5626,44.48Z"/><path class="a" d="M755.8126,33.94a74.6289,74.6289,0,0,1,38.86-1.75c-1.32,4.14-3.03,8.14-4.23,12.32a53.8318,53.8318,0,0,0-21.01-.1c.42,18.61.06,37.23.2,55.84-4.62,0-9.24.06-13.85-.06C756.1026,78.11,756.0326,56.02,755.8126,33.94Z"/><path class="a" d="M263.1426,31.6c4.6-.01,9.2-.1,13.8.12-.38,12.8-.06,25.62-.2,38.43-.04,4.84-.26,10.37,3.27,14.19,3.01,3.48,7.87,4.35,12.25,4.36,5.02.04,10.12.07,15-1.31-.47-18.59-.14-37.2-.18-55.81,4.61.02,9.23-.08,13.84.14-.38,13.81-.09,27.62-.18,41.43.1,8.26-.25,16.52.27,24.77a102.0876,102.0876,0,0,1-29.76,3.73c-7.74-.04-15.88-2.48-21.27-8.26-5.05-5.81-6.8-13.72-6.88-21.23C263.1226,58.64,263.0626,45.12,263.1426,31.6Z"/><path class="a" d="M12.6626,39.81a19.3607,19.3607,0,0,1,12.84,1.1c7.89,3.8,15.88,7.39,23.77,11.22,1.9.89,3.87,2.57,3.76,4.87a9.3972,9.3972,0,0,1-5.38,4.59c-8.03,3.52-15.81,7.58-23.85,11.06-8.27,3.41-18.53-1.02-22.06-9.15C-3.2874,54.41,3.2526,42.64,12.6626,39.81Z"/><path class="a" d="M90.6326,39.65c4.89-.93,10.4-.53,14.4,2.72,6.14,4.31,9.09,12.76,6.29,19.84-2.85,9-13.81,14.03-22.51,10.43-8.08-3.49-15.9-7.56-23.94-11.13-2.39-.98-4.91-2.55-5.41-5.3,1.39-3.96,5.9-4.77,9.17-6.58C76.0026,46.38,83.0926,42.46,90.6326,39.65Z"/><path class="a" d="M50.6526,78.75c4.76-1.33,10.22-1.15,14.51,1.49a17.9051,17.9051,0,0,1,8.48,12.88,17.6071,17.6071,0,0,1-10.38,18.01c-8.43,3.79-19.48-.33-22.89-9.05C36.0326,93.21,41.4626,81.79,50.6526,78.75Z"/></svg>