<svg xmlns="http://www.w3.org/2000/svg" viewBox="0 0 578.7255 124.0695"><defs><style>.a,.b{fill:#b6b6bf;}.b{opacity:0.8;}</style></defs><path class="a" d="M178.6385,96.9892V78.8279c0-4.4723-2.3389-8.5305-6.9483-8.5305-4.54,0-7.2233,4.0582-7.2233,8.5305V96.9892h-8.3931V63.005h7.774l.6191,4.1278c1.7889-3.44,5.71-4.6779,8.9431-4.6779,4.0588,0,8.1181,1.6513,10.0439,6.3292,3.027-4.8159,6.9483-6.1922,11.3511-6.1922,9.6313,0,14.3781,5.9172,14.3781,16.098V96.9892H200.79V78.69c0-4.4713-1.8574-8.2556-6.3977-8.2556s-7.3608,3.9213-7.3608,8.3936V96.9892Z"/><path class="a" d="M244.6094,63.0735h8.049V96.9892h-7.9109l-.4131-4.9528c-1.9264,3.99-7.2233,5.916-11.007,5.9845-10.0439.0685-17.4737-6.1226-17.4737-18.0232,0-11.6952,7.7739-17.8178,17.68-17.7493,4.54,0,8.8741,2.1329,10.8005,5.5029ZM224.2467,79.9977c0,6.4661,4.4713,10.3188,10.0439,10.3188,13.2084,0,13.2084-20.5692,0-20.5692C228.718,69.7473,224.2467,73.53,224.2467,79.9977Z"/><path class="a" d="M267.516,63.0735l.6191,3.9212c2.614-4.1962,6.1226-4.8148,9.5623-4.8148a12.8667,12.8667,0,0,1,8.7371,3.2331l-3.7837,7.2923a8.3845,8.3845,0,0,0-6.0541-2.2014c-4.4029,0-8.4616,2.3384-8.4616,8.5991V96.9892H259.742V63.0735Z"/><path class="a" d="M297.7834,48.9019V76.695l11.42-13.6215h10.0433v.4816L305.4193,79.0345,321.1732,96.37v.62H311.0614l-13.278-15.3413V96.9892h-8.3925V48.9019Z"/><path class="a" d="M332.1791,83.0242c.55,4.1962,4.1963,7.2228,10.1123,7.2228,3.0961,0,7.1543-1.1687,9.0807-3.1635l5.366,5.2964c-3.5777,3.7147-9.4253,5.504-14.5847,5.504-11.6952,0-18.6429-7.2238-18.6429-18.0928,0-10.3189,7.0173-17.7493,18.0243-17.7493,11.3506,0,18.4364,7.0173,17.13,20.9824Zm18.4364-6.9488c-.55-4.4028-3.99-6.6032-8.8056-6.6032-4.5409,0-8.2556,2.2-9.4938,6.6032Z"/><path class="a" d="M375.518,53.5112v9.6319h9.3557v7.2227h-9.4253V85.019c0,3.2331,1.7894,4.816,4.4028,4.816a9.5956,9.5956,0,0,0,4.0593-1.0317l2.3395,7.1543a18.7645,18.7645,0,0,1-6.9489,1.4448c-7.3608.275-12.1767-3.9213-12.1767-12.3834V70.3658h-6.3292V63.1431h6.3292V54.4059Z"/><path class="a" d="M419.4743,61.6287l2.2014,1.9264-3.3016,3.8527c2.4069,2.6145,4.1963,6.0541,4.1963,11.5571a16.0694,16.0694,0,0,1-9.15,14.4467c5.9856,2.1329,9.2872,6.3291,9.2872,12.1767,0,9.15-7.1543,13.5531-16.1665,13.5531s-16.098-4.954-16.098-13.5531h3.3712c0,6.9488,5.9161,10.25,12.7268,10.25s12.8649-3.0265,12.8649-10.25c0-7.2923-6.5357-10.1808-12.8649-10.1808-9.8373,0-15.96-7.3619-15.96-16.4426,0-10.5939,7.1543-16.5785,15.96-16.5785a17.2633,17.2633,0,0,1,9.6318,3.095ZM393.9521,78.9649c0,7.0173,4.8149,13.0715,12.5888,13.0715a13.0409,13.0409,0,0,0,12.7269-13.0715c0-8.5991-5.71-13.2084-12.7269-13.2084C399.5932,65.7565,393.9521,70.0908,393.9521,78.9649Z"/><path class="a" d="M432.8882,48.8334V96.9892h-3.3711V48.8334Z"/><path class="a" d="M440.386,79.9977a17.0842,17.0842,0,0,1,17.2666-17.5428c9.5623,0,18.0929,5.8476,16.7861,19.1245H443.8256c.6871,7.98,6.81,12.5888,13.827,12.5888,4.4713,0,9.7-1.7883,12.2453-5.1595l2.4079,1.9264c-3.3015,4.3343-9.2187,6.5357-14.6532,6.5357C448.09,97.4708,440.386,90.7981,440.386,79.9977Zm31.0251-1.3763C471.3426,70.2289,465.84,65.55,457.6526,65.55c-7.0173,0-13.07,4.7475-13.827,13.0715Z"/><path class="a" d="M515.85,63.005V96.9892H512.479V89.7654a15.8871,15.8871,0,0,1-13.8966,7.7739c-9.4926,0-17.2666-7.1543-17.2666-17.5416s7.774-17.4058,17.2666-17.4058c5.5041,0,11.0766,2.546,13.8966,7.8424V63.005ZM484.687,79.9977c0,8.5295,6.1911,14.24,13.8954,14.24,18.9191,0,18.9191-28.4117,0-28.4117C490.8781,65.8261,484.687,71.4671,484.687,79.9977Z"/><path class="a" d="M575.3544,96.9892V76.6265c0-6.5357-4.4028-11.1451-10.869-11.1451s-10.9385,4.816-10.9385,11.3517V96.9892h-3.3712V76.8331c0-6.5357-4.4713-11.2832-10.9374-11.2832s-10.87,4.7475-10.87,11.2832V96.9892h-3.3712V63.005h3.1646l.07,5.641c2.3384-4.4713,6.6727-6.3291,11.0755-6.3291,5.1594,0,10.5939,2.3394,12.5888,8.3936a13.134,13.134,0,0,1,12.59-8.3936c8.324,0,14.24,5.8475,14.24,14.31V96.9892Z"/><polygon class="a" points="29.734 61.62 29.734 61.62 29.734 61.62 29.734 61.62"/><path class="a" d="M55.6365,67.184l69.5727-21.7415-.2109,8.5088.2109,24.2524L121.4651,83.82l.065.2385a5.1171,5.1171,0,0,1,3.5759,5.9334H134.57V35.51a5.98,5.98,0,0,0-5.98-5.98H35.7135a5.98,5.98,0,0,0-5.98,5.98V51.202l8.8518-1.4863ZM78.3637,36.5384l1.5274-2.7926,1.5274,2.7926,2.7927,1.5274-2.7927,1.5274-1.5274,2.7927-1.5274-2.7927L75.571,38.0658Zm-23.019,10.674,2.6235-4.7968,2.6235,4.7968,4.7967,2.6234-4.7967,2.6235-2.6235,4.7968-2.6235-4.7968-4.7968-2.6235Z"/><path class="a" d="M29.7336,90.3722v-.38L15.88,115.21a6.0351,6.0351,0,0,0-.6025,1.6,5.937,5.937,0,0,1,.5688-1.4406Z"/><path class="a" d="M147.7894,115.3228,134.57,89.9919H125.106a5.1191,5.1191,0,0,1-1.2852,2.4717l.0028.01-.0665.0669c-.0392.0406-.0781.08-.1186.12L92.448,124.07h50.04A5.98,5.98,0,0,0,147.7894,115.3228Z"/><path class="b" d="M15.2772,116.81A5.86,5.86,0,0,0,20.965,124.07h.1558A5.9842,5.9842,0,0,1,15.2772,116.81Z"/><path class="a" d="M120.061,83.82a5.0912,5.0912,0,0,1,1.4691.2385l-.065-.2385,3.7441-5.6163L101.18,89.9919H115.016a5.1464,5.1464,0,0,1,5.045-6.1719Z"/><path class="b" d="M120.061,83.82a5.0912,5.0912,0,0,1,1.4691.2385l-.065-.2385,3.7441-5.6163L101.18,89.9919H115.016a5.1464,5.1464,0,0,1,5.045-6.1719Z"/><polygon class="a" points="76.287 89.992 80.302 89.992 117.721 72.587 117.713 67.032 73.115 86.466 76.287 89.992"/><polygon class="b" points="76.287 89.992 80.302 89.992 117.721 72.587 117.713 67.032 73.115 86.466 76.287 89.992"/><polygon class="a" points="67.026 79.698 117.705 61.392 117.698 56.318 62.179 74.311 67.026 79.698"/><polygon class="b" points="67.026 79.698 117.705 61.392 117.698 56.318 62.179 74.311 67.026 79.698"/><polygon class="a" points="36.948 60.331 29.734 61.62 29.734 61.62 29.734 89.992 64.108 89.992 36.948 60.331"/><polygon class="b" points="36.948 60.331 29.734 61.62 29.734 61.62 29.734 89.992 64.108 89.992 36.948 60.331"/><path class="a" d="M120.061,94.1163a5.149,5.149,0,0,1-5.045-4.1244H101.18l-25.58,12.5488L64.1085,89.9919H29.7336v.38L15.846,115.37a5.8517,5.8517,0,0,0,5.2748,8.7H92.448L123.6385,92.66A5.1243,5.1243,0,0,1,120.061,94.1163ZM89.64,113.7731a6.5523,6.5523,0,1,1,6.5523-6.5523A6.5523,6.5523,0,0,1,89.64,113.7731Z"/><path class="b" d="M120.061,94.1163a5.149,5.149,0,0,1-5.045-4.1244H101.18l-25.58,12.5488L64.1085,89.9919H29.7336v.38L15.846,115.37a5.8517,5.8517,0,0,0,5.2748,8.7H92.448L123.6385,92.66A5.1243,5.1243,0,0,1,120.061,94.1163ZM89.64,113.7731a6.5523,6.5523,0,1,1,6.5523-6.5523A6.5523,6.5523,0,0,1,89.64,113.7731Z"/><polygon class="a" points="77.471 91.308 80.302 89.992 76.287 89.992 77.471 91.308"/><polygon class="b" points="77.471 91.308 80.302 89.992 76.287 89.992 77.471 91.308"/><path class="a" d="M123.8236,92.4739l-.0028-.01c-.0227.0245-.0405.0533-.0637.0772Z"/><path class="b" d="M123.8236,92.4739l-.0028-.01c-.0227.0245-.0405.0533-.0637.0772Z"/><polygon class="a" points="57.915 24.487 60.145 20.41 64.222 18.18 60.145 15.95 57.915 11.872 55.685 15.95 51.608 18.18 55.685 20.41 57.915 24.487"/><polygon class="a" points="18.213 36.427 24.653 24.653 36.427 18.213 24.653 11.774 18.213 0 11.774 11.774 0 18.213 11.774 24.653 18.213 36.427"/><polygon class="a" points="21.537 59.661 16.741 57.037 14.117 52.241 11.494 57.037 6.697 59.661 11.494 62.284 14.117 67.081 16.741 62.284 21.537 59.661"/></svg>